<svg id="svg" version="1.1" xmlns="http://www.w3.org/2000/svg" xmlns:xlink="http://www.w3.org/1999/xlink" width="400" height="633.6700336700337" viewBox="0, 0, 400,633.6700336700337"><g id="svgg"><path id="path0" d="M196.000 4.502 L 195.000 5.023 194.895 18.278 C 194.802 29.933,194.866 31.609,195.423 32.166 C 196.384 33.127,208.051 33.103,208.851 32.139 C 209.795 31.001,209.643 5.872,208.687 4.914 C 207.754 3.980,197.631 3.651,196.000 4.502 M196.000 46.901 L 195.000 47.422 194.800 58.011 C 194.690 63.835,194.454 68.825,194.276 69.100 C 193.781 69.865,192.609 69.697,191.762 68.739 C 182.968 58.805,162.020 51.667,147.400 53.623 C 127.330 56.308,111.781 66.862,102.932 83.806 C 100.359 88.734,100.496 88.638,93.447 90.390 C 66.837 97.005,49.617 120.792,47.254 154.200 C 46.954 158.448,47.006 158.350,43.816 160.735 C 36.267 166.383,34.236 168.393,29.000 175.399 C 8.454 202.893,6.671 246.677,24.874 276.711 C 26.668 279.670,26.979 280.473,26.924 282.000 C 26.222 301.375,26.367 303.991,28.636 312.941 C 35.579 340.333,60.622 362.400,84.763 362.400 C 87.625 362.400,87.837 362.574,90.614 367.191 C 100.576 383.758,118.462 395.101,138.000 397.241 C 146.886 398.215,146.337 398.229,156.800 396.760 C 168.841 395.069,178.791 390.394,189.765 381.271 C 194.733 377.142,194.706 377.083,194.760 392.251 C 194.795 402.198,194.877 403.566,195.461 404.051 C 196.565 404.967,207.744 404.827,208.686 403.886 C 209.363 403.209,209.405 400.519,209.500 352.086 L 209.599 301.000 210.444 300.300 C 211.156 299.710,212.132 299.600,216.644 299.600 C 223.858 299.600,223.600 299.871,223.600 292.276 C 223.600 284.613,223.991 285.035,216.733 284.869 C 208.977 284.692,209.600 285.590,209.600 274.587 C 209.600 263.989,208.956 264.929,216.343 264.733 C 223.851 264.534,223.600 264.793,223.600 257.245 C 223.600 249.753,223.941 250.112,216.664 249.938 C 208.955 249.753,209.600 250.680,209.600 239.774 C 209.600 228.376,207.915 229.600,223.600 229.600 C 239.018 229.600,237.600 230.350,237.600 222.200 C 237.600 214.044,239.053 214.800,223.373 214.800 C 207.903 214.800,209.600 216.067,209.600 204.517 C 209.600 193.736,208.960 194.647,216.664 194.462 C 223.936 194.288,223.600 194.640,223.600 187.200 C 223.600 179.760,223.936 180.112,216.664 179.938 C 212.553 179.839,210.734 179.644,210.261 179.251 C 209.206 178.375,209.270 161.223,210.331 160.262 C 210.989 159.667,212.864 159.599,228.831 159.595 C 238.604 159.592,247.001 159.481,247.492 159.350 C 248.221 159.155,255.800 150.688,260.000 145.376 C 261.076 144.016,266.267 137.927,269.200 134.586 C 270.190 133.458,272.886 130.248,275.192 127.452 C 277.624 124.503,279.769 122.273,280.300 122.139 C 281.268 121.896,281.414 121.923,285.800 123.163 C 314.473 131.265,334.580 93.145,311.657 74.144 C 288.361 54.834,256.203 78.961,267.324 107.405 C 268.983 111.648,268.940 111.859,265.662 115.595 C 264.404 117.028,261.581 120.341,259.388 122.957 C 257.195 125.574,253.999 129.354,252.288 131.357 C 250.576 133.361,248.209 136.183,247.027 137.629 C 245.846 139.075,243.981 141.235,242.883 142.429 L 240.888 144.600 226.196 144.714 C 213.484 144.813,211.376 144.745,210.560 144.210 L 209.616 143.592 209.508 95.810 C 209.406 50.584,209.362 47.990,208.687 47.314 C 207.755 46.381,197.632 46.051,196.000 46.901 M164.160 69.360 C 184.685 75.537,195.198 91.335,195.200 116.003 C 195.200 123.695,194.862 124.384,191.083 124.394 C 180.438 124.422,168.300 116.884,162.765 106.809 C 159.606 101.058,159.716 101.200,158.426 101.200 C 157.222 101.200,150.722 103.399,148.445 104.577 C 146.651 105.504,146.806 106.901,149.225 111.610 C 157.104 126.950,171.584 136.776,188.683 138.389 C 194.205 138.910,194.291 138.943,194.790 140.740 C 195.350 142.755,195.340 190.081,194.779 192.100 C 194.241 194.036,193.909 194.007,189.474 191.635 C 170.851 181.677,150.075 187.381,130.607 207.799 C 118.901 220.075,110.187 224.622,101.073 223.207 C 95.436 222.333,93.272 220.821,92.188 217.000 C 88.743 204.848,76.370 194.525,64.921 194.250 C 61.922 194.178,61.818 194.380,61.690 200.519 C 61.548 207.309,61.645 207.506,65.657 208.621 C 83.675 213.627,83.501 237.901,65.414 242.583 C 61.902 243.492,61.822 243.635,61.666 249.249 C 61.447 257.102,61.873 257.647,67.427 256.606 C 77.139 254.786,85.480 248.579,89.837 239.927 C 91.698 236.232,92.289 235.893,95.600 236.622 C 110.844 239.980,124.822 234.321,139.684 218.772 C 143.048 215.253,147.150 211.325,148.800 210.045 C 165.375 197.180,181.964 198.391,191.994 213.200 C 195.322 218.114,195.000 213.317,195.000 257.935 L 195.000 297.671 194.056 298.435 C 193.431 298.941,192.484 299.201,191.256 299.202 C 174.184 299.224,156.202 311.173,148.390 327.686 C 146.220 332.274,146.569 332.825,153.142 335.179 C 159.408 337.424,159.202 337.476,161.629 333.000 C 167.955 321.330,177.777 314.551,190.023 313.404 C 192.673 313.155,193.130 313.215,194.008 313.927 L 195.000 314.730 194.994 328.065 C 194.987 344.738,194.292 349.076,190.389 356.800 C 173.798 389.639,124.288 392.349,104.236 361.515 C 84.340 330.922,106.408 294.114,145.800 292.186 C 153.555 291.807,152.857 292.713,153.184 282.600 C 153.422 275.256,153.469 274.926,154.571 272.800 C 157.698 266.768,163.666 261.141,169.925 258.323 C 174.168 256.412,174.000 256.749,174.000 250.147 C 174.000 242.875,173.803 242.629,168.909 243.782 C 155.558 246.930,141.450 261.509,139.189 274.494 C 138.537 278.241,138.438 278.321,133.136 279.397 C 121.956 281.668,111.981 286.408,104.200 293.150 C 97.826 298.672,98.028 298.531,96.605 298.477 C 89.509 298.210,78.454 288.990,76.370 281.600 C 75.470 278.411,75.445 278.400,68.818 278.400 C 62.246 278.400,61.997 278.494,62.006 280.980 C 62.042 290.864,70.504 301.821,83.414 308.699 C 89.012 311.682,88.873 311.363,86.895 316.645 C 83.601 325.443,82.564 331.733,82.936 340.651 C 83.236 347.839,83.115 348.029,78.855 347.067 C 54.171 341.493,36.340 311.918,41.433 285.000 C 41.766 283.240,42.142 280.714,42.267 279.388 L 42.495 276.975 39.406 272.388 C 16.493 238.364,25.875 185.542,57.669 169.568 C 62.574 167.103,62.185 168.201,62.196 156.800 C 62.220 133.336,72.478 115.247,90.568 106.770 C 96.341 104.064,96.613 104.271,96.923 111.600 C 97.308 120.714,99.104 127.751,103.002 135.423 C 104.211 137.801,105.200 140.156,105.200 140.655 C 105.200 141.664,104.992 141.836,99.600 145.269 C 90.780 150.884,84.713 159.342,83.177 168.165 C 82.406 172.593,82.694 172.800,89.636 172.800 C 96.152 172.800,96.514 172.672,97.207 170.116 C 98.943 163.715,103.573 158.757,111.371 154.945 C 116.039 152.664,116.141 152.677,121.360 156.181 C 128.271 160.820,134.984 163.614,142.450 164.959 C 152.679 166.802,153.000 166.637,153.000 159.536 C 153.000 152.068,152.943 151.987,147.261 151.410 C 123.051 148.948,105.885 123.016,112.434 98.800 C 118.357 76.904,142.870 62.952,164.160 69.360 M298.310 83.276 C 303.677 85.283,307.716 92.159,306.727 97.603 C 304.306 110.919,287.212 113.688,281.184 101.740 C 275.640 90.753,286.629 78.905,298.310 83.276 M344.000 116.970 C 335.083 118.849,327.668 124.587,323.751 132.638 C 321.293 137.689,321.971 137.381,313.039 137.511 C 308.838 137.572,305.009 137.707,304.531 137.811 C 303.429 138.050,304.153 137.028,282.036 169.600 C 274.827 180.218,275.505 179.634,270.031 179.947 C 264.537 180.262,264.814 179.874,264.806 187.271 C 264.798 195.008,263.996 194.400,274.206 194.400 C 284.580 194.400,280.837 197.976,299.810 169.941 C 311.873 152.119,311.498 152.570,314.546 152.189 C 320.374 151.461,321.322 151.992,324.007 157.490 C 335.395 180.805,370.388 177.271,376.811 152.156 C 381.955 132.046,363.972 112.761,344.000 116.970 M353.639 132.209 C 363.008 135.487,365.893 146.603,359.298 154.013 C 354.260 159.675,344.787 159.781,339.672 154.232 C 330.028 143.769,340.317 127.547,353.639 132.209 M237.829 180.629 C 237.314 181.144,237.200 182.331,237.200 187.200 C 237.200 194.855,236.757 194.400,244.206 194.400 C 251.520 194.400,251.200 194.729,251.200 187.200 C 251.200 179.671,251.520 180.000,244.206 180.000 C 239.513 180.000,238.342 180.115,237.829 180.629 M348.800 194.630 C 341.526 196.541,334.320 202.628,330.770 209.862 C 329.651 212.141,328.402 214.185,327.994 214.403 C 327.528 214.653,318.553 214.800,303.826 214.800 C 275.653 214.800,278.800 213.869,278.800 222.200 C 278.800 230.530,275.660 229.600,303.781 229.600 C 330.660 229.600,328.569 229.292,330.428 233.523 C 342.669 261.378,384.400 252.712,384.400 222.316 C 384.400 203.165,367.208 189.796,348.800 194.630 M360.896 209.279 C 369.870 212.307,372.756 224.997,365.970 231.583 C 357.526 239.777,343.645 234.372,342.899 222.600 C 342.310 213.314,351.874 206.235,360.896 209.279 M251.544 215.565 C 250.631 216.305,250.600 216.517,250.600 222.123 C 250.600 229.919,250.294 229.600,257.773 229.600 C 265.607 229.600,265.200 230.006,265.200 222.200 C 265.200 214.412,265.580 214.800,257.955 214.800 C 253.169 214.800,252.371 214.895,251.544 215.565 M237.829 250.629 C 236.953 251.504,236.902 262.640,237.768 263.824 C 238.725 265.133,249.352 264.993,250.435 263.656 C 251.474 262.373,251.586 252.330,250.577 250.889 C 249.759 249.720,238.957 249.500,237.829 250.629 M265.429 250.629 C 264.731 251.326,264.488 262.488,265.148 263.529 C 265.651 264.323,268.185 264.780,272.140 264.790 C 276.380 264.802,276.398 264.817,280.662 271.486 C 292.451 289.927,303.210 305.525,304.436 305.952 C 305.196 306.218,308.620 306.400,312.841 306.400 C 321.733 306.400,321.290 306.188,323.968 311.713 C 337.272 339.153,378.767 328.550,377.502 298.034 C 376.456 272.837,346.519 261.515,328.963 279.677 C 326.894 281.818,324.990 284.208,324.482 285.300 C 323.997 286.345,323.237 287.982,322.794 288.938 C 321.763 291.163,320.746 291.600,316.600 291.600 C 311.188 291.600,313.804 294.769,292.396 262.276 C 288.365 256.158,284.697 250.893,284.245 250.576 C 282.977 249.689,266.322 249.735,265.429 250.629 M238.089 285.423 C 237.236 286.020,237.200 286.295,237.200 292.161 C 237.200 298.883,237.213 298.920,239.858 299.965 C 241.291 300.531,242.418 302.044,251.810 316.000 C 255.289 321.170,260.895 329.492,264.268 334.493 C 271.125 344.660,270.928 344.120,268.959 347.386 C 254.125 371.987,280.915 400.523,306.469 387.341 C 335.259 372.489,319.004 327.556,287.386 334.590 C 282.815 335.607,283.158 335.872,276.883 326.497 C 269.522 315.500,255.226 294.366,251.909 289.578 C 250.436 287.452,248.795 285.544,248.212 285.278 C 246.600 284.544,239.193 284.649,238.089 285.423 M353.799 286.434 C 362.989 289.872,365.850 301.572,359.178 308.423 C 348.418 319.470,330.291 306.812,337.249 293.111 C 340.287 287.128,347.681 284.145,353.799 286.434 M298.487 349.904 C 304.307 352.494,307.902 359.087,306.581 364.750 C 303.521 377.865,286.439 379.791,280.879 367.648 C 275.948 356.879,287.653 345.083,298.487 349.904 M197.000 418.262 C 194.807 418.605,194.800 418.649,194.800 432.827 C 194.800 444.501,194.871 445.961,195.461 446.451 C 196.565 447.367,207.744 447.227,208.686 446.286 C 209.767 445.204,209.784 420.012,208.704 418.933 C 208.000 418.229,200.107 417.777,197.000 418.262 M63.723 491.204 C 62.210 491.813,60.087 496.822,55.586 510.400 C 55.185 511.610,53.846 515.390,52.610 518.800 C 51.373 522.210,49.579 527.250,48.622 530.000 C 47.665 532.750,46.413 536.219,45.841 537.709 C 43.883 542.804,44.206 543.200,50.306 543.200 C 56.301 543.200,56.901 542.721,58.412 536.719 C 59.233 533.458,59.400 533.400,68.000 533.400 C 76.924 533.400,76.554 533.224,78.406 538.341 C 80.203 543.307,80.044 543.200,85.582 543.200 C 91.889 543.200,92.332 542.529,90.017 536.487 C 88.688 533.016,85.978 525.273,79.604 506.727 C 74.585 492.125,74.459 491.838,72.752 491.243 C 71.256 490.722,64.988 490.694,63.723 491.204 M155.600 491.298 C 154.641 491.802,154.600 491.979,154.600 495.600 C 154.600 500.363,154.770 500.497,160.544 500.302 C 165.406 500.137,165.600 499.956,165.600 495.586 C 165.600 491.408,165.181 491.039,160.259 490.886 C 157.810 490.810,156.269 490.947,155.600 491.298 M185.218 491.217 C 179.364 492.430,176.559 495.583,175.852 501.742 C 175.541 504.451,175.097 505.452,174.061 505.781 C 171.748 506.515,171.693 512.242,173.979 514.346 L 175.558 515.800 175.679 528.659 C 175.827 544.341,175.373 543.200,181.462 543.200 C 187.660 543.200,187.200 544.354,187.200 528.800 C 187.200 514.143,187.141 514.400,190.524 514.400 C 193.182 514.400,193.742 513.764,193.924 510.537 C 194.129 506.919,193.458 505.984,190.449 505.695 C 187.646 505.426,186.735 504.264,187.715 502.209 C 188.369 500.838,188.696 500.656,191.289 500.219 C 193.374 499.867,194.000 498.790,194.000 495.555 C 194.000 491.162,191.483 489.919,185.218 491.217 M201.726 491.184 C 199.845 491.982,199.208 497.333,200.765 499.256 C 201.797 500.530,209.464 500.708,210.686 499.486 C 211.720 498.452,211.720 492.749,210.686 491.714 C 209.873 490.900,203.310 490.512,201.726 491.184 M258.000 491.298 C 256.690 491.984,256.244 498.640,257.441 499.634 C 258.847 500.801,266.146 500.597,267.387 499.356 C 268.213 498.530,268.247 492.891,267.433 491.776 C 266.709 490.786,259.659 490.428,258.000 491.298 M318.017 491.290 C 316.511 492.082,316.482 492.493,316.447 513.200 C 316.405 537.795,316.745 539.726,321.563 542.269 C 323.810 543.456,331.477 543.666,332.571 542.571 C 334.189 540.954,333.147 534.000,331.287 534.000 C 328.069 534.000,328.000 533.541,328.000 512.025 C 328.000 489.125,328.482 491.061,322.736 490.886 C 320.253 490.811,318.670 490.946,318.017 491.290 M132.000 495.061 C 130.246 495.773,130.000 496.413,130.000 500.277 L 130.000 504.030 128.144 505.834 L 126.288 507.638 126.529 510.319 C 126.751 512.792,126.887 513.103,128.285 514.328 L 129.800 515.656 130.000 525.758 L 130.200 535.860 131.400 538.179 C 133.457 542.152,135.038 542.972,140.948 543.131 C 146.886 543.290,147.284 543.044,147.499 539.077 C 147.677 535.785,147.107 534.767,144.648 533.985 C 141.616 533.021,141.600 532.969,141.600 523.746 C 141.600 514.779,141.715 514.400,144.445 514.400 C 146.584 514.400,147.400 513.198,147.398 510.047 C 147.396 506.707,147.010 506.165,144.272 505.653 C 141.750 505.182,141.841 505.353,141.542 500.523 C 141.208 495.130,141.153 495.071,136.304 494.928 C 134.267 494.867,132.330 494.927,132.000 495.061 M111.922 506.096 C 109.684 506.925,109.601 506.927,107.282 506.225 C 104.499 505.382,98.938 505.456,97.861 506.349 C 96.879 507.164,96.848 541.591,97.829 542.571 C 98.320 543.062,99.370 543.200,102.629 543.200 C 108.801 543.200,108.398 544.072,108.409 530.700 C 108.417 520.958,108.496 519.627,109.158 518.170 C 110.372 515.497,113.448 514.509,116.538 515.800 C 119.612 517.084,121.132 515.872,123.686 510.098 C 125.513 505.968,118.611 503.620,111.922 506.096 M229.330 505.776 C 220.880 508.418,216.734 518.154,218.858 530.367 C 220.649 540.666,230.544 546.370,241.058 543.164 C 249.437 540.608,251.455 536.656,246.149 533.192 C 242.619 530.888,242.559 530.877,240.759 532.197 C 234.536 536.761,229.609 533.228,229.609 524.200 C 229.609 515.794,234.071 512.358,239.894 516.279 C 242.355 517.936,242.971 517.883,246.349 515.722 C 250.103 513.321,250.371 512.456,248.133 509.979 C 244.349 505.790,235.564 503.826,229.330 505.776 M284.200 505.778 C 277.992 507.515,276.891 508.743,278.535 512.104 C 280.199 515.504,281.237 516.275,283.311 515.652 C 284.240 515.373,285.900 514.875,287.000 514.547 C 292.572 512.882,299.239 516.039,297.087 519.324 C 296.471 520.264,296.247 520.305,290.724 520.492 C 279.758 520.864,275.613 524.159,275.604 532.513 C 275.594 541.791,283.676 546.273,294.122 542.783 C 296.721 541.914,296.907 541.903,298.236 542.536 C 300.386 543.562,306.528 543.472,307.600 542.400 C 308.846 541.154,308.826 517.464,307.576 513.416 C 306.483 509.878,303.968 507.189,300.800 506.171 C 297.830 505.217,287.112 504.963,284.200 505.778 M155.600 506.098 L 154.600 506.623 154.496 524.176 C 154.371 545.157,153.801 543.200,160.039 543.200 C 166.133 543.200,165.600 545.006,165.600 524.373 C 165.600 504.137,166.095 505.868,160.259 505.686 C 157.810 505.610,156.269 505.747,155.600 506.098 M201.726 505.984 C 200.011 506.712,199.970 507.196,200.088 525.030 C 200.220 545.111,199.618 543.200,205.814 543.200 C 211.927 543.200,211.400 544.976,211.400 524.372 C 211.400 504.087,211.883 505.848,206.286 505.707 C 204.259 505.655,202.207 505.780,201.726 505.984 M258.000 506.099 L 257.000 506.623 256.896 524.176 C 256.771 545.114,256.231 543.200,262.262 543.200 C 268.557 543.200,268.000 545.016,268.000 524.476 C 268.000 510.327,267.901 507.218,267.433 506.576 C 266.709 505.585,259.658 505.228,258.000 506.099 M69.660 511.203 C 70.513 513.445,72.800 520.963,72.800 521.526 C 72.800 522.711,71.498 523.200,68.345 523.200 C 62.866 523.200,62.787 522.990,65.367 515.299 C 67.754 508.181,68.308 507.652,69.660 511.203 M296.869 528.662 C 297.763 529.472,297.804 530.846,296.981 532.438 C 294.375 537.476,284.676 535.359,286.661 530.186 C 287.399 528.261,295.148 527.105,296.869 528.662 M9.800 565.085 C 9.140 565.176,8.375 565.543,8.100 565.901 C 7.464 566.730,7.365 615.213,7.997 616.394 C 8.768 617.835,16.799 617.944,18.210 616.532 C 18.877 615.866,19.111 567.109,18.452 566.071 C 17.803 565.046,13.582 564.565,9.800 565.085 M136.848 565.174 C 134.775 565.705,134.813 565.295,134.806 587.627 C 134.799 613.023,134.946 613.884,139.706 616.334 C 142.554 617.799,149.683 617.877,150.835 616.456 C 152.747 614.096,151.712 609.163,149.066 608.028 C 146.030 606.727,146.222 608.114,146.000 585.959 C 145.864 572.400,145.661 565.900,145.365 565.605 C 144.800 565.040,138.597 564.727,136.848 565.174 M159.891 565.062 C 157.520 565.474,157.563 565.005,157.687 589.050 C 157.812 613.319,157.727 612.526,160.467 615.081 C 162.921 617.371,171.604 618.403,173.557 616.638 C 175.596 614.794,174.561 608.697,172.093 608.014 C 169.187 607.209,169.421 608.920,169.200 586.826 C 168.965 563.276,169.414 565.219,164.155 565.001 C 162.420 564.929,160.501 564.956,159.891 565.062 M183.800 564.970 C 183.580 565.058,182.919 565.236,182.331 565.365 C 180.191 565.835,179.628 572.083,181.583 573.666 C 183.112 574.904,189.705 574.731,191.018 573.418 C 192.292 572.145,192.464 567.462,191.291 566.013 C 190.617 565.181,185.170 564.423,183.800 564.970 M71.462 569.931 C 70.946 570.502,70.800 571.484,70.800 574.393 L 70.800 578.123 69.249 579.561 C 66.535 582.078,66.536 586.116,69.251 588.804 L 70.800 590.337 70.800 599.149 C 70.800 614.457,72.584 617.295,82.251 617.367 C 87.953 617.409,88.182 617.244,88.168 613.097 C 88.157 609.466,87.707 608.623,85.487 608.064 C 82.275 607.255,82.200 607.025,82.200 597.973 C 82.200 589.014,82.233 588.907,85.129 588.519 C 89.636 587.914,89.497 580.454,84.967 579.774 C 82.545 579.411,82.294 578.930,82.031 574.161 C 81.860 571.060,81.644 569.872,81.200 569.591 C 80.011 568.840,72.203 569.113,71.462 569.931 M42.468 580.213 C 40.201 581.086,39.824 581.129,38.863 580.632 C 36.402 579.360,30.282 579.376,29.000 580.657 C 28.098 581.559,28.098 615.641,29.000 616.543 C 30.314 617.856,37.380 617.828,38.480 616.505 C 38.868 616.037,39.051 613.032,39.200 604.639 C 39.446 590.835,40.153 588.807,44.720 588.801 C 49.321 588.796,49.774 590.143,49.922 604.258 C 50.070 618.363,49.655 617.405,55.610 617.391 C 61.657 617.378,61.200 618.589,61.200 602.553 C 61.200 587.353,61.027 586.337,57.846 582.872 C 54.378 579.094,48.167 578.021,42.468 580.213 M104.179 579.978 C 95.864 582.939,92.131 590.744,93.541 602.222 C 94.619 610.988,98.039 615.317,105.365 617.191 C 115.661 619.824,130.355 614.025,125.809 609.123 C 122.675 605.743,121.271 605.408,117.756 607.203 C 112.385 609.947,105.200 608.054,105.200 603.896 C 105.200 602.133,105.698 602.046,116.498 601.920 C 128.080 601.785,127.642 601.910,127.913 598.644 C 128.302 593.955,126.539 587.637,123.909 584.295 C 120.435 579.881,110.536 577.715,104.179 579.978 M207.881 579.777 C 196.611 583.797,195.466 608.745,206.306 614.082 C 209.473 615.641,215.583 615.930,218.478 614.657 C 220.964 613.564,222.160 614.892,221.229 617.713 C 219.836 621.934,215.090 623.180,210.227 620.600 C 206.556 618.652,205.938 618.734,203.136 621.536 C 199.526 625.146,199.877 626.715,204.854 629.227 C 215.283 634.492,228.037 631.094,231.678 622.081 C 232.941 618.957,233.368 581.369,232.153 580.361 C 231.268 579.626,224.872 579.604,222.386 580.328 C 220.748 580.805,220.368 580.776,218.471 580.028 C 215.977 579.045,210.310 578.911,207.881 579.777 M251.370 579.949 C 243.531 582.624,240.393 587.843,240.406 598.184 C 240.425 613.406,249.366 620.733,263.828 617.379 C 271.914 615.504,275.170 611.896,272.014 608.311 C 269.396 605.337,268.514 605.179,264.900 607.038 C 259.816 609.654,255.257 609.115,252.901 605.619 C 250.714 602.373,251.113 602.232,263.166 602.000 C 275.229 601.768,274.540 602.025,274.733 597.682 C 275.330 584.261,263.979 575.646,251.370 579.949 M296.800 580.015 C 294.944 580.884,294.148 580.882,290.800 580.000 C 288.466 579.385,283.686 579.743,282.832 580.597 C 281.804 581.624,281.882 615.654,282.915 616.686 C 283.811 617.581,291.227 617.732,292.089 616.872 C 292.468 616.494,292.655 613.504,292.814 605.281 C 292.998 595.755,293.130 593.961,293.758 592.499 C 295.483 588.479,299.209 587.515,302.047 590.353 L 303.600 591.906 303.602 602.853 C 303.605 617.823,303.434 617.421,309.800 617.379 C 315.538 617.341,315.289 618.096,315.124 601.200 L 315.000 588.600 313.878 586.200 C 311.000 580.041,302.964 577.131,296.800 580.015 M333.400 579.762 C 323.860 582.791,319.588 593.741,322.804 606.918 C 325.426 617.659,340.729 621.618,350.700 614.135 C 354.052 611.620,353.798 609.836,349.711 607.168 C 346.139 604.835,346.371 604.857,343.625 606.606 C 337.349 610.605,333.409 607.517,333.409 598.600 C 333.409 589.859,337.786 586.189,343.428 590.200 C 345.920 591.972,346.528 591.954,349.512 590.025 C 354.250 586.963,354.115 585.217,348.863 581.611 C 345.629 579.391,337.594 578.430,333.400 579.762 M368.195 579.972 C 358.350 583.479,354.494 594.265,358.452 607.230 C 361.465 617.099,374.063 621.025,385.445 615.642 C 391.168 612.936,391.770 611.447,388.430 608.261 C 385.675 605.634,384.520 605.409,381.987 607.008 C 377.938 609.564,373.625 609.339,370.704 606.418 C 366.715 602.429,367.623 602.000,380.047 602.000 L 390.036 602.000 391.018 601.018 C 393.343 598.693,391.014 588.052,387.274 583.913 C 383.429 579.657,374.347 577.781,368.195 579.972 M183.800 579.770 C 183.580 579.858,182.923 580.035,182.340 580.163 C 180.515 580.563,180.400 581.654,180.400 598.600 C 180.400 618.366,180.102 617.400,186.200 617.400 C 189.868 617.400,191.138 617.016,191.614 615.763 C 192.398 613.700,192.103 581.816,191.291 580.813 C 190.617 579.981,185.170 579.223,183.800 579.770 M113.588 588.512 C 115.748 589.605,116.977 592.565,115.771 593.771 C 114.971 594.571,106.058 594.698,105.280 593.920 C 102.501 591.141,109.622 586.505,113.588 588.512 M261.858 589.724 C 264.909 593.053,263.682 594.400,257.600 594.400 C 252.579 594.400,252.000 594.188,252.000 592.351 C 252.000 588.279,258.859 586.451,261.858 589.724 M377.120 588.562 C 379.651 589.879,381.013 592.530,379.788 593.754 C 378.835 594.708,369.702 594.543,369.084 593.562 C 367.194 590.560,373.464 586.660,377.120 588.562 M218.678 589.582 C 222.766 592.075,222.800 602.657,218.727 605.211 C 214.447 607.897,210.659 604.340,210.621 597.600 C 210.581 590.439,214.191 586.846,218.678 589.582 " stroke="none" fill="#04c3db" fill-rule="evenodd"></path><path id="path1" d="M0.000 316.800 L 0.000 633.600 200.000 633.600 L 400.000 633.600 400.000 316.800 L 400.000 0.000 200.000 0.000 L 0.000 0.000 0.000 316.800 M208.687 4.914 C 209.643 5.872,209.795 31.001,208.851 32.139 C 208.051 33.103,196.384 33.127,195.423 32.166 C 194.866 31.609,194.802 29.933,194.895 18.278 L 195.000 5.023 196.000 4.502 C 197.631 3.651,207.754 3.980,208.687 4.914 M208.687 47.314 C 209.362 47.990,209.406 50.584,209.508 95.810 L 209.616 143.592 210.560 144.210 C 211.376 144.745,213.484 144.813,226.196 144.714 L 240.888 144.600 242.883 142.429 C 243.981 141.235,245.846 139.075,247.027 137.629 C 248.209 136.183,250.576 133.361,252.288 131.357 C 253.999 129.354,257.195 125.574,259.388 122.957 C 261.581 120.341,264.404 117.028,265.662 115.595 C 268.940 111.859,268.983 111.648,267.324 107.405 C 256.203 78.961,288.361 54.834,311.657 74.144 C 334.580 93.145,314.473 131.265,285.800 123.163 C 281.414 121.923,281.268 121.896,280.300 122.139 C 279.769 122.273,277.624 124.503,275.192 127.452 C 272.886 130.248,270.190 133.458,269.200 134.586 C 266.267 137.927,261.076 144.016,260.000 145.376 C 255.800 150.688,248.221 159.155,247.492 159.350 C 247.001 159.481,238.604 159.592,228.831 159.595 C 212.864 159.599,210.989 159.667,210.331 160.262 C 209.270 161.223,209.206 178.375,210.261 179.251 C 210.734 179.644,212.553 179.839,216.664 179.938 C 223.936 180.112,223.600 179.760,223.600 187.200 C 223.600 194.640,223.936 194.288,216.664 194.462 C 208.960 194.647,209.600 193.736,209.600 204.517 C 209.600 216.067,207.903 214.800,223.373 214.800 C 239.053 214.800,237.600 214.044,237.600 222.200 C 237.600 230.350,239.018 229.600,223.600 229.600 C 207.915 229.600,209.600 228.376,209.600 239.774 C 209.600 250.680,208.955 249.753,216.664 249.938 C 223.941 250.112,223.600 249.753,223.600 257.245 C 223.600 264.793,223.851 264.534,216.343 264.733 C 208.956 264.929,209.600 263.989,209.600 274.587 C 209.600 285.590,208.977 284.692,216.733 284.869 C 223.991 285.035,223.600 284.613,223.600 292.276 C 223.600 299.871,223.858 299.600,216.644 299.600 C 212.132 299.600,211.156 299.710,210.444 300.300 L 209.599 301.000 209.500 352.086 C 209.405 400.519,209.363 403.209,208.686 403.886 C 207.744 404.827,196.565 404.967,195.461 404.051 C 194.877 403.566,194.795 402.198,194.760 392.251 C 194.706 377.083,194.733 377.142,189.765 381.271 C 178.791 390.394,168.841 395.069,156.800 396.760 C 146.337 398.229,146.886 398.215,138.000 397.241 C 118.462 395.101,100.576 383.758,90.614 367.191 C 87.837 362.574,87.625 362.400,84.763 362.400 C 60.622 362.400,35.579 340.333,28.636 312.941 C 26.367 303.991,26.222 301.375,26.924 282.000 C 26.979 280.473,26.668 279.670,24.874 276.711 C 6.671 246.677,8.454 202.893,29.000 175.399 C 34.236 168.393,36.267 166.383,43.816 160.735 C 47.006 158.350,46.954 158.448,47.254 154.200 C 49.617 120.792,66.837 97.005,93.447 90.390 C 100.496 88.638,100.359 88.734,102.932 83.806 C 111.781 66.862,127.330 56.308,147.400 53.623 C 162.020 51.667,182.968 58.805,191.762 68.739 C 192.609 69.697,193.781 69.865,194.276 69.100 C 194.454 68.825,194.690 63.835,194.800 58.011 L 195.000 47.422 196.000 46.901 C 197.632 46.051,207.755 46.381,208.687 47.314 M144.600 68.641 C 118.213 74.493,103.772 102.592,114.611 126.996 C 120.276 139.752,134.073 150.069,147.261 151.410 C 152.943 151.987,153.000 152.068,153.000 159.536 C 153.000 166.637,152.679 166.802,142.450 164.959 C 134.984 163.614,128.271 160.820,121.360 156.181 C 116.141 152.677,116.039 152.664,111.371 154.945 C 103.573 158.757,98.943 163.715,97.207 170.116 C 96.514 172.672,96.152 172.800,89.636 172.800 C 82.694 172.800,82.406 172.593,83.177 168.165 C 84.713 159.342,90.780 150.884,99.600 145.269 C 104.992 141.836,105.200 141.664,105.200 140.655 C 105.200 140.156,104.211 137.801,103.002 135.423 C 99.104 127.751,97.308 120.714,96.923 111.600 C 96.613 104.271,96.341 104.064,90.568 106.770 C 78.955 112.212,69.293 123.522,64.914 136.800 C 62.453 144.262,62.207 146.071,62.196 156.800 C 62.185 168.201,62.574 167.103,57.669 169.568 C 25.875 185.542,16.493 238.364,39.406 272.388 L 42.495 276.975 42.267 279.388 C 42.142 280.714,41.766 283.240,41.433 285.000 C 36.340 311.918,54.171 341.493,78.855 347.067 C 83.115 348.029,83.236 347.839,82.936 340.651 C 82.564 331.733,83.601 325.443,86.895 316.645 C 88.873 311.363,89.012 311.682,83.414 308.699 C 70.504 301.821,62.042 290.864,62.006 280.980 C 61.997 278.494,62.246 278.400,68.818 278.400 C 75.445 278.400,75.470 278.411,76.370 281.600 C 78.454 288.990,89.509 298.210,96.605 298.477 C 98.028 298.531,97.826 298.672,104.200 293.150 C 111.981 286.408,121.956 281.668,133.136 279.397 C 138.438 278.321,138.537 278.241,139.189 274.494 C 141.450 261.509,155.558 246.930,168.909 243.782 C 173.803 242.629,174.000 242.875,174.000 250.147 C 174.000 256.749,174.168 256.412,169.925 258.323 C 163.666 261.141,157.698 266.768,154.571 272.800 C 153.469 274.926,153.422 275.256,153.184 282.600 C 152.857 292.713,153.555 291.807,145.800 292.186 C 106.408 294.114,84.340 330.922,104.236 361.515 C 124.288 392.349,173.798 389.639,190.389 356.800 C 194.292 349.076,194.987 344.738,194.994 328.065 L 195.000 314.730 194.008 313.927 C 193.130 313.215,192.673 313.155,190.023 313.404 C 177.777 314.551,167.955 321.330,161.629 333.000 C 159.202 337.476,159.408 337.424,153.142 335.179 C 146.569 332.825,146.220 332.274,148.390 327.686 C 156.202 311.173,174.184 299.224,191.256 299.202 C 192.484 299.201,193.431 298.941,194.056 298.435 L 195.000 297.671 195.000 257.935 C 195.000 213.317,195.322 218.114,191.994 213.200 C 181.964 198.391,165.375 197.180,148.800 210.045 C 147.150 211.325,143.048 215.253,139.684 218.772 C 124.822 234.321,110.844 239.980,95.600 236.622 C 92.289 235.893,91.698 236.232,89.837 239.927 C 85.480 248.579,77.139 254.786,67.427 256.606 C 61.873 257.647,61.447 257.102,61.666 249.249 C 61.822 243.635,61.902 243.492,65.414 242.583 C 83.501 237.901,83.675 213.627,65.657 208.621 C 61.645 207.506,61.548 207.309,61.690 200.519 C 61.818 194.380,61.922 194.178,64.921 194.250 C 76.370 194.525,88.743 204.848,92.188 217.000 C 93.272 220.821,95.436 222.333,101.073 223.207 C 110.187 224.622,118.901 220.075,130.607 207.799 C 150.075 187.381,170.851 181.677,189.474 191.635 C 193.909 194.007,194.241 194.036,194.779 192.100 C 195.340 190.081,195.350 142.755,194.790 140.740 C 194.291 138.943,194.205 138.910,188.683 138.389 C 171.584 136.776,157.104 126.950,149.225 111.610 C 146.806 106.901,146.651 105.504,148.445 104.577 C 150.722 103.399,157.222 101.200,158.426 101.200 C 159.716 101.200,159.606 101.058,162.765 106.809 C 168.300 116.884,180.438 124.422,191.083 124.394 C 194.862 124.384,195.200 123.695,195.200 116.003 C 195.199 102.631,193.279 94.910,187.938 86.803 C 178.660 72.720,160.509 65.114,144.600 68.641 M290.698 82.415 C 281.867 84.608,277.261 93.964,281.184 101.740 C 287.212 113.688,304.306 110.919,306.727 97.603 C 308.258 89.180,298.955 80.365,290.698 82.415 M357.600 117.806 C 374.715 123.216,382.750 142.362,374.518 158.120 C 363.876 178.494,334.084 178.122,324.007 157.490 C 321.322 151.992,320.374 151.461,314.546 152.189 C 311.498 152.570,311.873 152.119,299.810 169.941 C 280.837 197.976,284.580 194.400,274.206 194.400 C 263.996 194.400,264.798 195.008,264.806 187.271 C 264.814 179.874,264.537 180.262,270.031 179.947 C 275.505 179.634,274.827 180.218,282.036 169.600 C 304.153 137.028,303.429 138.050,304.531 137.811 C 305.009 137.707,308.838 137.572,313.039 137.511 C 321.971 137.381,321.293 137.689,323.751 132.638 C 329.923 119.950,344.365 113.622,357.600 117.806 M345.972 131.725 C 330.732 136.017,333.604 158.200,349.400 158.200 C 360.595 158.200,366.669 146.505,360.327 137.161 C 357.422 132.881,350.787 130.369,345.972 131.725 M250.577 180.889 C 251.067 181.587,251.200 182.940,251.200 187.200 C 251.200 194.729,251.520 194.400,244.206 194.400 C 236.757 194.400,237.200 194.855,237.200 187.200 C 237.200 179.545,236.757 180.000,244.206 180.000 C 249.693 180.000,249.983 180.040,250.577 180.889 M363.742 194.635 C 384.541 200.009,391.688 226.738,376.411 242.010 C 362.195 256.222,338.480 251.845,330.428 233.523 C 328.569 229.292,330.660 229.600,303.781 229.600 C 275.660 229.600,278.800 230.530,278.800 222.200 C 278.800 213.869,275.653 214.800,303.826 214.800 C 318.553 214.800,327.528 214.653,327.994 214.403 C 328.402 214.185,329.651 212.141,330.770 209.862 C 336.743 197.691,350.673 191.258,363.742 194.635 M353.498 208.814 C 337.751 212.737,340.392 235.377,356.600 235.396 C 373.603 235.416,374.261 210.113,357.296 208.639 C 356.033 208.530,354.324 208.608,353.498 208.814 M264.311 215.423 C 265.164 216.020,265.200 216.293,265.200 222.200 C 265.200 230.006,265.607 229.600,257.773 229.600 C 250.294 229.600,250.600 229.919,250.600 222.123 C 250.600 214.548,250.347 214.800,257.955 214.800 C 262.256 214.800,263.612 214.933,264.311 215.423 M250.577 250.889 C 251.586 252.330,251.474 262.373,250.435 263.656 C 249.352 264.993,238.725 265.133,237.768 263.824 C 236.902 262.640,236.953 251.504,237.829 250.629 C 238.957 249.500,249.759 249.720,250.577 250.889 M284.245 250.576 C 284.697 250.893,288.365 256.158,292.396 262.276 C 313.804 294.769,311.188 291.600,316.600 291.600 C 320.746 291.600,321.763 291.163,322.794 288.938 C 323.237 287.982,323.997 286.345,324.482 285.300 C 324.990 284.208,326.894 281.818,328.963 279.677 C 346.519 261.515,376.456 272.837,377.502 298.034 C 378.767 328.550,337.272 339.153,323.968 311.713 C 321.290 306.188,321.733 306.400,312.841 306.400 C 308.620 306.400,305.196 306.218,304.436 305.952 C 303.210 305.525,292.451 289.927,280.662 271.486 C 276.398 264.817,276.380 264.802,272.140 264.790 C 268.185 264.780,265.651 264.323,265.148 263.529 C 264.488 262.488,264.731 251.326,265.429 250.629 C 266.322 249.735,282.977 249.689,284.245 250.576 M248.212 285.278 C 248.795 285.544,250.436 287.452,251.909 289.578 C 255.226 294.366,269.522 315.500,276.883 326.497 C 283.158 335.872,282.815 335.607,287.386 334.590 C 319.004 327.556,335.259 372.489,306.469 387.341 C 280.915 400.523,254.125 371.987,268.959 347.386 C 270.928 344.120,271.125 344.660,264.268 334.493 C 260.895 329.492,255.289 321.170,251.810 316.000 C 242.418 302.044,241.291 300.531,239.858 299.965 C 237.213 298.920,237.200 298.883,237.200 292.161 C 237.200 284.588,237.031 284.800,243.070 284.800 C 245.392 284.800,247.616 285.007,248.212 285.278 M345.714 286.180 C 335.773 289.287,332.518 300.975,339.552 308.311 C 348.142 317.270,362.909 311.462,362.883 299.136 C 362.864 290.487,353.806 283.652,345.714 286.180 M287.712 350.186 C 280.710 353.719,277.849 361.030,280.879 367.648 C 286.439 379.791,303.521 377.865,306.581 364.750 C 308.967 354.523,297.167 345.415,287.712 350.186 M208.704 418.933 C 209.784 420.012,209.767 445.204,208.686 446.286 C 207.744 447.227,196.565 447.367,195.461 446.451 C 194.593 445.730,194.442 420.219,195.300 419.101 C 196.302 417.796,207.427 417.656,208.704 418.933 M72.752 491.243 C 74.459 491.838,74.585 492.125,79.604 506.727 C 85.978 525.273,88.688 533.016,90.017 536.487 C 92.332 542.529,91.889 543.200,85.582 543.200 C 80.044 543.200,80.203 543.307,78.406 538.341 C 76.554 533.224,76.924 533.400,68.000 533.400 C 59.400 533.400,59.233 533.458,58.412 536.719 C 56.901 542.721,56.301 543.200,50.306 543.200 C 44.206 543.200,43.883 542.804,45.841 537.709 C 46.413 536.219,47.665 532.750,48.622 530.000 C 49.579 527.250,51.373 522.210,52.610 518.800 C 53.846 515.390,55.185 511.610,55.586 510.400 C 60.087 496.822,62.210 491.813,63.723 491.204 C 64.988 490.694,71.256 490.722,72.752 491.243 M164.759 491.762 C 165.474 492.410,165.600 492.982,165.600 495.586 C 165.600 499.956,165.406 500.137,160.544 500.302 C 154.770 500.497,154.600 500.363,154.600 495.600 C 154.600 491.979,154.641 491.802,155.600 491.298 C 157.195 490.460,163.684 490.789,164.759 491.762 M193.248 491.960 C 195.236 494.415,193.966 499.768,191.289 500.219 C 188.696 500.656,188.369 500.838,187.715 502.209 C 186.735 504.264,187.646 505.426,190.449 505.695 C 193.458 505.984,194.129 506.919,193.924 510.537 C 193.742 513.764,193.182 514.400,190.524 514.400 C 187.141 514.400,187.200 514.143,187.200 528.800 C 187.200 544.354,187.660 543.200,181.462 543.200 C 175.373 543.200,175.827 544.341,175.679 528.659 L 175.558 515.800 173.979 514.346 C 171.693 512.242,171.748 506.515,174.061 505.781 C 175.097 505.452,175.541 504.451,175.852 501.742 C 176.411 496.866,177.973 494.259,181.315 492.624 C 185.525 490.564,191.834 490.213,193.248 491.960 M210.686 491.714 C 211.720 492.749,211.720 498.452,210.686 499.486 C 209.464 500.708,201.797 500.530,200.765 499.256 C 199.208 497.333,199.845 491.982,201.726 491.184 C 203.310 490.512,209.873 490.900,210.686 491.714 M267.433 491.776 C 268.247 492.891,268.213 498.530,267.387 499.356 C 266.146 500.597,258.847 500.801,257.441 499.634 C 256.244 498.640,256.690 491.984,258.000 491.298 C 259.659 490.428,266.709 490.786,267.433 491.776 M327.236 491.944 C 327.964 492.844,328.000 493.784,328.000 512.025 C 328.000 533.541,328.069 534.000,331.287 534.000 C 332.660 534.000,333.200 535.309,333.200 538.633 C 333.200 543.123,333.107 543.200,327.634 543.200 C 320.886 543.200,318.241 541.259,317.005 535.400 C 316.377 532.426,316.159 494.951,316.757 492.803 C 317.388 490.537,325.555 489.868,327.236 491.944 M140.645 495.674 C 141.105 496.134,141.353 497.473,141.542 500.523 C 141.841 505.353,141.750 505.182,144.272 505.653 C 147.010 506.165,147.396 506.707,147.398 510.047 C 147.400 513.198,146.584 514.400,144.445 514.400 C 141.715 514.400,141.600 514.779,141.600 523.746 C 141.600 532.969,141.616 533.021,144.648 533.985 C 147.107 534.767,147.677 535.785,147.499 539.077 C 147.284 543.044,146.886 543.290,140.948 543.131 C 135.038 542.972,133.457 542.152,131.400 538.179 L 130.200 535.860 130.000 525.758 L 129.800 515.656 128.285 514.328 C 126.887 513.103,126.751 512.792,126.529 510.319 L 126.288 507.638 128.144 505.834 L 130.000 504.030 130.000 500.277 C 130.000 495.109,130.419 494.753,136.304 494.928 C 139.046 495.009,140.174 495.203,140.645 495.674 M121.578 505.759 C 124.940 506.974,124.914 508.734,121.450 514.148 C 119.853 516.645,119.137 516.886,116.538 515.800 C 113.448 514.509,110.372 515.497,109.158 518.170 C 108.496 519.627,108.417 520.958,108.409 530.700 C 108.398 544.072,108.801 543.200,102.629 543.200 C 99.370 543.200,98.320 543.062,97.829 542.571 C 96.848 541.591,96.879 507.164,97.861 506.349 C 98.938 505.456,104.499 505.382,107.282 506.225 C 109.601 506.927,109.684 506.925,111.922 506.096 C 114.545 505.125,119.359 504.957,121.578 505.759 M241.366 505.805 C 244.079 506.628,246.399 508.059,248.133 509.979 C 250.371 512.456,250.103 513.321,246.349 515.722 C 242.971 517.883,242.355 517.936,239.894 516.279 C 234.071 512.358,229.609 515.794,229.609 524.200 C 229.609 533.228,234.536 536.761,240.759 532.197 C 242.559 530.877,242.619 530.888,246.149 533.192 C 254.195 538.444,242.669 546.072,230.775 543.367 C 221.095 541.165,216.473 531.341,218.972 518.278 C 220.940 507.997,230.690 502.566,241.366 505.805 M300.800 506.171 C 303.968 507.189,306.483 509.878,307.576 513.416 C 308.826 517.464,308.846 541.154,307.600 542.400 C 306.528 543.472,300.386 543.562,298.236 542.536 C 296.907 541.903,296.721 541.914,294.122 542.783 C 283.676 546.273,275.594 541.791,275.604 532.513 C 275.613 524.159,279.758 520.864,290.724 520.492 C 296.247 520.305,296.471 520.264,297.087 519.324 C 299.239 516.039,292.572 512.882,287.000 514.547 C 285.900 514.875,284.240 515.373,283.311 515.652 C 280.678 516.443,276.759 511.564,277.942 508.969 C 279.425 505.713,293.870 503.945,300.800 506.171 M164.759 506.562 C 165.589 507.314,165.600 507.554,165.600 524.373 C 165.600 545.006,166.133 543.200,160.039 543.200 C 153.801 543.200,154.371 545.157,154.496 524.176 L 154.600 506.623 155.600 506.098 C 157.195 505.260,163.684 505.589,164.759 506.562 M210.686 506.514 C 211.826 507.655,211.781 541.095,210.638 542.358 C 209.678 543.419,202.338 543.628,200.976 542.633 C 200.050 541.955,199.524 508.836,200.414 507.174 C 201.341 505.443,209.116 504.943,210.686 506.514 M267.433 506.576 C 267.901 507.218,268.000 510.327,268.000 524.476 C 268.000 545.016,268.557 543.200,262.262 543.200 C 256.231 543.200,256.771 545.114,256.896 524.176 L 257.000 506.623 258.000 506.099 C 259.658 505.228,266.709 505.585,267.433 506.576 M67.404 509.593 C 66.834 510.516,63.600 520.612,63.600 521.469 C 63.600 522.783,64.744 523.200,68.345 523.200 C 73.257 523.200,73.369 522.986,71.572 517.054 C 69.378 509.814,68.377 508.020,67.404 509.593 M288.561 528.762 C 284.383 530.659,286.295 535.201,291.269 535.199 C 295.054 535.196,297.600 533.219,297.600 530.282 C 297.600 527.953,292.304 527.062,288.561 528.762 M16.559 565.181 C 17.416 565.379,18.268 565.780,18.452 566.071 C 19.111 567.109,18.877 615.866,18.210 616.532 C 16.799 617.944,8.768 617.835,7.997 616.394 C 7.365 615.213,7.464 566.730,8.100 565.901 C 8.868 564.901,13.610 564.497,16.559 565.181 M145.365 565.605 C 145.661 565.900,145.864 572.400,146.000 585.959 C 146.222 608.114,146.030 606.727,149.066 608.028 C 151.191 608.939,151.600 609.730,151.600 612.929 C 151.600 617.027,151.101 617.410,145.841 617.357 C 139.425 617.293,136.881 615.662,135.396 610.663 C 134.722 608.393,134.498 567.095,135.154 566.060 C 135.920 564.852,144.240 564.481,145.365 565.605 M168.155 565.977 C 168.987 566.808,169.003 567.131,169.200 586.826 C 169.421 608.920,169.187 607.209,172.093 608.014 C 174.035 608.551,174.400 609.327,174.400 612.912 C 174.400 617.106,174.001 617.415,168.657 617.353 C 162.906 617.288,160.591 616.187,158.661 612.600 C 157.513 610.467,157.070 567.868,158.178 566.177 C 159.255 564.534,166.564 564.387,168.155 565.977 M191.291 566.013 C 192.464 567.462,192.292 572.145,191.018 573.418 C 189.705 574.731,183.112 574.904,181.583 573.666 C 179.628 572.083,180.191 565.835,182.331 565.365 C 182.919 565.236,183.580 565.058,183.800 564.970 C 185.170 564.423,190.617 565.181,191.291 566.013 M81.200 569.591 C 81.644 569.872,81.860 571.060,82.031 574.161 C 82.294 578.930,82.545 579.411,84.967 579.774 C 89.497 580.454,89.636 587.914,85.129 588.519 C 82.233 588.907,82.200 589.014,82.200 597.973 C 82.200 607.025,82.275 607.255,85.487 608.064 C 87.707 608.623,88.157 609.466,88.168 613.097 C 88.182 617.244,87.953 617.409,82.251 617.367 C 72.584 617.295,70.800 614.457,70.800 599.149 L 70.800 590.337 69.251 588.804 C 66.536 586.116,66.535 582.078,69.249 579.561 L 70.800 578.123 70.800 574.393 C 70.800 569.278,70.886 569.198,76.362 569.206 C 78.693 569.209,80.870 569.383,81.200 569.591 M54.200 580.143 C 60.369 583.029,61.200 585.690,61.200 602.553 C 61.200 618.589,61.657 617.378,55.610 617.391 C 49.655 617.405,50.070 618.363,49.922 604.258 C 49.774 590.143,49.321 588.796,44.720 588.801 C 40.153 588.807,39.446 590.835,39.200 604.639 C 39.051 613.032,38.868 616.037,38.480 616.505 C 37.380 617.828,30.314 617.856,29.000 616.543 C 28.098 615.641,28.098 581.559,29.000 580.657 C 30.282 579.376,36.402 579.360,38.863 580.632 C 39.824 581.129,40.201 581.086,42.468 580.213 C 46.049 578.836,51.337 578.804,54.200 580.143 M116.877 579.926 C 124.377 582.401,128.658 589.660,127.913 598.644 C 127.642 601.910,128.080 601.785,116.498 601.920 C 105.698 602.046,105.200 602.133,105.200 603.896 C 105.200 608.054,112.385 609.947,117.756 607.203 C 121.271 605.408,122.675 605.743,125.809 609.123 C 130.355 614.025,115.661 619.824,105.365 617.191 C 98.039 615.317,94.619 610.988,93.541 602.222 C 92.131 590.744,95.864 582.939,104.179 579.978 C 107.028 578.964,113.875 578.936,116.877 579.926 M218.471 580.028 C 220.368 580.776,220.748 580.805,222.386 580.328 C 224.872 579.604,231.268 579.626,232.153 580.361 C 233.368 581.369,232.941 618.957,231.678 622.081 C 228.037 631.094,215.283 634.492,204.854 629.227 C 199.877 626.715,199.526 625.146,203.136 621.536 C 205.938 618.734,206.556 618.652,210.227 620.600 C 215.090 623.180,219.836 621.934,221.229 617.713 C 222.160 614.892,220.964 613.564,218.478 614.657 C 214.030 616.612,205.134 614.878,202.802 611.602 C 196.919 603.340,198.054 585.817,204.760 581.379 C 208.342 579.009,214.376 578.414,218.471 580.028 M263.247 579.769 C 271.066 582.142,275.141 588.499,274.733 597.682 C 274.540 602.025,275.229 601.768,263.166 602.000 C 251.113 602.232,250.714 602.373,252.901 605.619 C 255.257 609.115,259.816 609.654,264.900 607.038 C 268.514 605.179,269.396 605.337,272.014 608.311 C 278.478 615.655,257.111 621.560,247.165 615.178 C 239.250 610.098,237.662 591.935,244.457 584.196 C 248.145 579.996,257.068 577.894,263.247 579.769 M308.600 580.285 C 310.847 581.472,312.572 583.405,313.878 586.200 L 315.000 588.600 315.124 601.200 C 315.289 618.096,315.538 617.341,309.800 617.379 C 303.434 617.421,303.605 617.823,303.602 602.853 L 303.600 591.906 302.047 590.353 C 299.209 587.515,295.483 588.479,293.758 592.499 C 293.130 593.961,292.998 595.755,292.814 605.281 C 292.655 613.504,292.468 616.494,292.089 616.872 C 291.227 617.732,283.811 617.581,282.915 616.686 C 281.882 615.654,281.804 581.624,282.832 580.597 C 283.686 579.743,288.466 579.385,290.800 580.000 C 294.148 580.882,294.944 580.884,296.800 580.015 C 299.305 578.843,306.168 579.000,308.600 580.285 M345.128 579.947 C 348.542 581.009,352.085 583.582,352.851 585.554 C 353.374 586.900,352.466 588.117,349.512 590.025 C 346.528 591.954,345.920 591.972,343.428 590.200 C 337.786 586.189,333.409 589.859,333.409 598.600 C 333.409 607.517,337.349 610.605,343.625 606.606 C 346.371 604.857,346.139 604.835,349.711 607.168 C 353.798 609.836,354.052 611.620,350.700 614.135 C 340.729 621.618,325.426 617.659,322.804 606.918 C 321.328 600.867,322.060 590.616,324.233 586.907 C 328.113 580.287,336.860 577.373,345.128 579.947 M380.306 579.770 C 386.448 581.405,390.046 585.842,391.370 593.415 C 392.261 598.509,392.200 599.836,391.018 601.018 L 390.036 602.000 380.047 602.000 C 367.623 602.000,366.715 602.429,370.704 606.418 C 373.625 609.339,377.938 609.564,381.987 607.008 C 384.520 605.409,385.675 605.634,388.430 608.261 C 391.201 610.904,391.305 611.474,389.328 613.210 C 383.172 618.614,370.768 619.544,364.151 615.096 C 354.475 608.593,354.742 586.527,364.557 581.520 C 369.119 579.193,375.481 578.486,380.306 579.770 M191.291 580.813 C 192.103 581.816,192.398 613.700,191.614 615.763 C 191.138 617.016,189.868 617.400,186.200 617.400 C 180.102 617.400,180.400 618.366,180.400 598.600 C 180.400 581.654,180.515 580.563,182.340 580.163 C 182.923 580.035,183.580 579.858,183.800 579.770 C 185.170 579.223,190.617 579.981,191.291 580.813 M108.178 588.384 C 105.924 589.297,104.114 592.754,105.280 593.920 C 106.058 594.698,114.971 594.571,115.771 593.771 C 118.528 591.014,112.407 586.671,108.178 588.384 M254.967 588.366 C 253.656 588.930,252.000 591.155,252.000 592.351 C 252.000 594.188,252.579 594.400,257.600 594.400 C 262.640 594.400,263.200 594.192,263.200 592.314 C 263.200 589.369,258.203 586.973,254.967 588.366 M372.200 588.377 C 370.044 589.257,368.251 592.240,369.084 593.562 C 369.702 594.543,378.835 594.708,379.788 593.754 C 382.354 591.189,376.126 586.776,372.200 588.377 M213.540 589.408 C 209.796 591.441,209.403 601.446,212.937 604.746 C 217.213 608.740,221.823 604.380,221.536 596.615 C 221.297 590.161,217.859 587.062,213.540 589.408 " stroke="none" fill="#f5f5f5" fill-rule="evenodd"></path></g></svg>