<?xml version="1.0" standalone="no"?>
<!DOCTYPE svg PUBLIC "-//W3C//DTD SVG 20010904//EN"
 "http://www.w3.org/TR/2001/REC-SVG-20010904/DTD/svg10.dtd">
<svg version="1.0" xmlns="http://www.w3.org/2000/svg"
 width="258.000000pt" height="173.000000pt" viewBox="0 0 258.000000 173.000000"
 preserveAspectRatio="xMidYMid meet">
<metadata>
Created by potrace 1.10, written by Peter Selinger 2001-2011
</metadata>
<g transform="translate(0.000000,173.000000) scale(0.100000,-0.100000)"
fill="#000000" stroke="none">
<path d="M70 1696 c0 -8 -8 -17 -17 -19 -17 -4 -17 -5 0 -6 13 -1 17 -10 17
-41 0 -22 5 -40 11 -40 6 0 9 15 7 37 -2 28 1 38 17 44 17 6 17 8 3 8 -10 1
-18 5 -18 10 0 5 8 12 18 14 10 3 6 5 -10 6 -18 1 -28 -4 -28 -13z"/>
<path d="M450 1698 c0 -9 -8 -19 -17 -21 -17 -4 -17 -5 0 -6 13 -1 17 -10 17
-41 0 -37 2 -40 28 -40 23 1 25 2 11 13 -8 7 -18 22 -21 35 -5 18 -1 25 15 32
12 5 16 9 8 9 -8 1 -20 9 -27 19 -12 16 -13 16 -14 0z"/>
<path d="M1319 1672 c-9 -31 -8 -45 5 -77 20 -47 32 -40 16 10 -9 26 -9 44 -1
67 13 38 13 38 1 38 -5 0 -14 -17 -21 -38z"/>
<path d="M1415 1688 c9 -35 9 -60 1 -97 -11 -44 10 -33 22 12 9 34 -4 107 -19
107 -5 0 -7 -10 -4 -22z"/>
<path d="M1617 1703 c-4 -3 -7 -19 -7 -35 0 -15 -5 -28 -12 -28 -9 0 -9 -3 0
-12 7 -7 12 -22 12 -35 0 -12 9 -27 20 -33 21 -11 27 -1 9 17 -18 18 -13 105
7 120 17 12 17 13 -2 13 -12 0 -24 -3 -27 -7z"/>
<path d="M142 1638 c3 -40 5 -43 36 -46 32 -3 32 -3 32 42 0 55 -17 62 -22 9
-2 -21 -7 -38 -13 -38 -5 0 -11 17 -13 38 -2 20 -8 37 -13 37 -6 0 -9 -19 -7
-42z"/>
<path d="M232 1635 c-1 -25 2 -45 8 -45 5 0 10 12 10 28 0 15 4 33 9 41 14 22
31 3 31 -35 0 -19 5 -34 10 -34 11 0 14 49 4 74 -4 10 -18 16 -38 16 -30 0
-31 -2 -34 -45z"/>
<path d="M339 1659 c-16 -31 3 -69 35 -69 35 0 42 18 9 22 -39 4 -39 42 0 46
33 4 26 22 -8 22 -15 0 -29 -9 -36 -21z"/>
<path d="M538 1673 c19 -8 15 -71 -5 -76 -10 -3 2 -5 27 -5 25 0 37 2 28 5
-13 3 -18 15 -18 44 0 34 -3 39 -22 38 -13 0 -17 -3 -10 -6z"/>
<path d="M624 1666 c-3 -8 -4 -27 -2 -43 2 -23 8 -28 32 -28 33 0 48 27 35 63
-10 25 -56 31 -65 8z m53 -40 c-10 -25 -37 -19 -37 7 0 13 3 27 7 31 11 11 36
-21 30 -38z"/>
<path d="M720 1636 c0 -55 17 -62 22 -8 2 20 8 37 13 37 6 0 11 -17 13 -37 2
-21 8 -38 13 -38 6 0 9 19 7 43 -3 39 -5 42 -35 45 -33 3 -33 3 -33 -42z"/>
<path d="M900 1636 c0 -25 5 -46 10 -46 6 0 10 16 10 35 0 19 5 35 10 35 6 0
10 -16 10 -35 0 -19 4 -35 8 -35 4 0 6 15 4 34 -2 18 1 37 7 40 7 5 11 -7 11
-33 0 -23 5 -41 11 -41 6 0 9 17 7 43 -3 42 -3 42 -45 45 l-43 3 0 -45z"/>
<path d="M1010 1669 c0 -6 8 -8 19 -4 11 3 22 1 26 -5 3 -5 -2 -10 -13 -10
-25 0 -46 -25 -38 -45 3 -9 18 -15 41 -15 33 0 35 2 35 33 0 18 -5 38 -12 45
-15 15 -58 16 -58 1z m50 -36 c0 -5 -5 -15 -10 -23 -7 -11 -12 -12 -21 -3 -6
6 -8 16 -5 22 8 12 36 15 36 4z"/>
<path d="M1118 1673 c19 -8 15 -71 -5 -76 -10 -3 2 -5 27 -5 25 0 37 2 28 5
-13 3 -18 15 -18 44 0 34 -3 39 -22 38 -13 0 -17 -3 -10 -6z"/>
<path d="M1200 1636 c0 -55 17 -62 22 -8 2 20 8 37 13 37 6 0 11 -17 13 -37 2
-21 8 -38 13 -38 6 0 9 19 7 43 -3 39 -5 42 -35 45 -33 3 -33 3 -33 -42z"/>
<path d="M35 980 c0 -305 1 -430 2 -277 2 152 2 402 0 555 -1 152 -2 27 -2
-278z"/>
<path d="M330 1430 c0 -33 4 -60 10 -60 6 0 10 16 10 36 0 28 3 35 18 32 13
-2 16 -11 14 -36 -3 -22 1 -32 10 -32 11 0 13 10 9 43 -5 35 -10 42 -29 41
-15 0 -22 5 -22 18 0 10 -4 18 -10 18 -6 0 -10 -27 -10 -60z"/>
<path d="M533 1478 c10 -8 17 -31 19 -58 3 -40 6 -45 28 -48 l25 -3 -23 18
c-20 16 -22 24 -16 61 6 41 6 42 -22 42 -24 0 -26 -2 -11 -12z"/>
<path d="M840 1460 c-12 -30 -8 -82 10 -110 15 -24 21 -6 9 29 -11 31 -9 58 6
94 4 9 3 17 -3 17 -5 0 -15 -13 -22 -30z"/>
<path d="M1108 1433 c-18 -60 -15 -80 6 -50 16 21 46 23 46 2 0 -8 6 -15 14
-15 10 0 9 12 -6 60 -11 33 -25 60 -31 60 -7 0 -20 -26 -29 -57z"/>
<path d="M1202 1483 c13 -3 18 -17 20 -56 3 -45 6 -52 26 -55 12 -2 22 1 22 7
0 6 -7 11 -15 11 -11 0 -15 12 -15 50 0 48 -1 50 -27 49 -16 -1 -21 -3 -11 -6z"/>
<path d="M1607 1468 c4 -13 8 -36 8 -53 0 -16 -4 -40 -8 -52 -5 -14 -4 -23 2
-23 20 0 34 75 21 114 -6 20 -16 36 -21 36 -6 0 -7 -9 -2 -22z"/>
<path d="M1806 1474 c-3 -9 -6 -24 -6 -35 0 -10 -5 -19 -11 -19 -8 0 -8 -4 -2
-12 6 -7 13 -25 17 -40 4 -20 13 -28 28 -28 20 0 21 1 4 13 -13 9 -18 27 -18
62 0 35 5 53 18 62 17 12 17 13 -3 13 -11 0 -24 -7 -27 -16z"/>
<path d="M224 1443 c3 -10 8 -30 12 -45 7 -30 19 -36 27 -15 4 9 8 8 16 -3 10
-13 12 -13 21 0 5 8 10 23 10 32 0 9 3 23 6 32 3 9 1 16 -5 16 -6 0 -11 -9
-11 -19 0 -11 -4 -23 -10 -26 -5 -3 -10 -1 -10 4 0 19 -20 12 -21 -6 -1 -10
-6 -3 -11 15 -11 32 -34 47 -24 15z"/>
<path d="M441 1450 c18 -10 14 -59 -5 -72 -6 -4 7 -7 29 -7 22 1 32 3 23 6
-13 3 -18 15 -18 44 0 34 -3 39 -22 39 -19 -1 -20 -2 -7 -10z"/>
<path d="M621 1438 c-13 -36 2 -63 38 -66 17 -2 31 1 31 7 0 6 -11 11 -25 11
-14 0 -25 5 -25 10 0 6 14 10 30 10 33 0 35 3 20 31 -15 27 -58 25 -69 -3z"/>
<path d="M923 1453 c12 -3 17 -15 17 -40 0 -27 -3 -34 -15 -29 -8 3 -15 1 -15
-4 0 -6 19 -9 43 -9 23 1 34 3 25 6 -13 3 -18 15 -18 44 0 36 -2 39 -27 38
-17 -1 -21 -3 -10 -6z"/>
<path d="M1017 1453 c-15 -14 -6 -34 21 -45 l27 -12 -27 -4 c-16 -2 -28 -8
-28 -13 0 -6 12 -9 28 -7 36 4 44 42 10 53 l-23 8 23 4 c12 2 22 9 22 14 0 10
-43 12 -53 2z"/>
<path d="M1308 1453 c19 -8 15 -71 -5 -76 -10 -3 2 -5 27 -5 25 0 37 2 28 5
-13 3 -18 15 -18 44 0 34 -3 39 -22 38 -13 0 -17 -3 -10 -6z"/>
<path d="M1390 1454 c0 -4 5 -24 12 -45 13 -46 32 -50 46 -11 5 15 13 35 17
45 4 9 3 17 -3 17 -6 0 -16 -15 -22 -32 l-13 -33 -10 33 c-8 27 -27 45 -27 26z"/>
<path d="M1490 1439 c-19 -34 2 -69 40 -69 16 0 30 5 30 11 0 5 -8 9 -17 8
-30 -3 -43 1 -43 11 0 6 14 10 31 10 26 0 30 3 27 23 -4 32 -52 36 -68 6z"/>
<path d="M225 875 c0 -242 1 -340 2 -217 2 123 2 321 0 440 -1 119 -2 19 -2
-223z"/>
<path d="M640 1255 c0 -8 -6 -15 -12 -15 -10 0 -10 -2 -1 -8 6 -4 13 -23 15
-42 2 -29 7 -35 28 -38 22 -2 23 -1 8 8 -11 6 -18 23 -18 40 0 19 6 30 18 33
16 4 16 5 0 6 -10 0 -18 8 -18 16 0 8 -4 15 -10 15 -5 0 -10 -7 -10 -15z"/>
<path d="M750 1251 c-15 -28 -12 -94 4 -117 13 -17 14 -13 9 37 -3 34 -1 64 6
77 7 14 8 22 2 22 -6 0 -15 -9 -21 -19z"/>
<path d="M835 1195 c0 -41 1 -75 3 -75 2 0 10 16 18 35 11 28 12 44 4 75 -6
22 -14 40 -18 40 -4 0 -7 -34 -7 -75z"/>
<path d="M430 1219 c-19 -34 2 -69 40 -69 16 0 30 5 30 11 0 5 -8 9 -17 8 -30
-3 -43 1 -43 11 0 6 14 10 31 10 26 0 30 3 27 23 -4 32 -52 36 -68 6z"/>
<path d="M530 1229 c0 -6 8 -8 19 -4 11 3 22 2 25 -3 3 -5 -8 -12 -25 -16 -25
-5 -30 -10 -27 -28 2 -19 10 -23 41 -25 35 -1 37 0 37 31 0 18 -5 37 -12 44
-15 15 -58 16 -58 1z m50 -33 c0 -16 -14 -36 -26 -36 -14 0 -19 22 -7 33 7 8
33 10 33 3z"/>
<path d="M930 1155 c0 -28 15 -34 24 -9 10 25 7 34 -9 34 -9 0 -15 -9 -15 -25z"/>
<path d="M432 1043 c13 -3 18 -17 20 -56 3 -47 5 -52 28 -55 22 -2 23 -1 8 8
-13 8 -18 24 -18 60 0 48 -1 50 -27 49 -16 -1 -21 -3 -11 -6z"/>
<path d="M940 1031 c-20 -38 -4 -131 23 -131 5 0 6 8 1 18 -13 31 -16 89 -5
111 7 13 8 21 2 21 -6 0 -15 -9 -21 -19z"/>
<path d="M1027 1028 c4 -13 8 -36 8 -53 0 -16 -4 -40 -8 -52 -5 -14 -4 -23 2
-23 20 0 34 75 21 114 -6 20 -16 36 -21 36 -6 0 -7 -9 -2 -22z"/>
<path d="M532 1008 c-15 -15 -15 -51 0 -66 15 -15 68 -16 68 -1 0 5 -8 9 -17
8 -30 -3 -43 1 -43 11 0 6 14 10 30 10 31 0 35 6 24 34 -7 19 -45 21 -62 4z"/>
<path d="M620 1009 c0 -6 8 -9 20 -6 11 3 22 1 25 -3 3 -5 -5 -10 -17 -12 -17
-2 -23 -10 -23 -28 0 -21 5 -26 33 -28 l33 -3 -3 43 c-3 40 -5 43 -35 46 -21
2 -33 -1 -33 -9z m50 -43 c0 -18 -17 -29 -30 -21 -8 5 -7 11 1 21 15 18 29 18
29 0z"/>
<path d="M730 975 c0 -25 5 -45 10 -45 6 0 10 16 10 35 0 33 7 40 38 36 6 -1
12 3 12 9 0 5 -16 10 -35 10 -35 0 -35 0 -35 -45z"/>
<path d="M810 975 c0 -25 5 -45 10 -45 6 0 10 15 10 34 0 19 5 38 11 42 17 10
30 -17 25 -48 -4 -20 -1 -28 9 -28 16 0 19 28 9 68 -5 17 -14 22 -40 22 -34 0
-34 -1 -34 -45z"/>
<path d="M1125 939 c-4 -11 -4 -23 0 -27 7 -7 25 17 25 36 0 20 -18 14 -25 -9z"/>
<path d="M670 816 c0 -8 -10 -16 -22 -18 -20 -3 -23 -9 -23 -43 0 -38 2 -40
33 -43 l32 -3 0 60 c0 34 -4 61 -10 61 -5 0 -10 -6 -10 -14z m-2 -63 c-3 -30
-23 -41 -31 -18 -9 21 2 45 20 45 10 0 13 -9 11 -27z"/>
<path d="M840 800 c-12 -30 -8 -82 10 -110 15 -24 21 -6 9 29 -11 31 -9 58 6
94 4 9 3 17 -3 17 -5 0 -15 -13 -22 -30z"/>
<path d="M931 808 c7 -13 9 -43 6 -77 -5 -50 -4 -54 9 -37 25 35 13 136 -17
136 -6 0 -5 -8 2 -22z"/>
<path d="M442 788 c-15 -15 -15 -51 0 -66 15 -15 58 -16 58 -2 0 6 -11 10 -25
10 -20 0 -25 5 -25 25 0 20 5 25 25 25 14 0 25 5 25 10 0 14 -43 13 -58 -2z"/>
<path d="M532 788 c-29 -29 -7 -78 35 -78 26 0 42 43 26 69 -13 20 -45 25 -61
9z m48 -33 c0 -18 -5 -25 -20 -25 -15 0 -20 7 -20 25 0 18 5 25 20 25 15 0 20
-7 20 -25z"/>
<path d="M720 779 c-19 -34 2 -69 40 -69 16 0 30 5 30 11 0 5 -8 9 -17 8 -30
-3 -43 1 -43 11 0 6 14 10 31 10 26 0 30 3 27 23 -4 32 -52 36 -68 6z"/>
<path d="M1027 718 c-7 -25 -3 -33 12 -23 13 8 15 45 2 45 -5 0 -11 -10 -14
-22z"/>
<path d="M533 598 c10 -8 17 -31 19 -58 3 -40 6 -45 28 -47 14 -1 18 0 8 3
-20 6 -21 10 -18 72 1 40 0 42 -26 42 -24 0 -26 -2 -11 -12z"/>
<path d="M940 591 c-20 -38 -4 -131 23 -131 5 0 6 8 1 18 -13 31 -16 89 -5
111 7 13 8 21 2 21 -6 0 -15 -9 -21 -19z"/>
<path d="M1027 588 c4 -13 8 -36 8 -53 0 -16 -4 -40 -8 -52 -5 -14 -4 -23 2
-23 20 0 34 75 21 114 -6 20 -16 36 -21 36 -6 0 -7 -9 -2 -22z"/>
<path d="M437 573 c-15 -14 -6 -34 19 -43 29 -11 24 -31 -6 -23 -11 3 -20 0
-20 -6 0 -17 57 -13 64 5 9 23 8 24 -20 34 -14 6 -23 14 -19 20 3 5 12 7 20 3
8 -3 15 0 15 6 0 12 -42 15 -53 4z"/>
<path d="M621 558 c-13 -36 2 -63 38 -66 17 -2 31 1 31 7 0 6 -10 10 -21 8
-12 -1 -24 4 -26 11 -3 8 6 12 26 12 34 0 36 2 21 31 -15 27 -58 25 -69 -3z"/>
<path d="M720 559 c-19 -34 2 -69 40 -69 16 0 30 5 30 11 0 5 -8 9 -17 8 -30
-3 -43 1 -43 11 0 6 14 10 31 10 26 0 30 3 27 23 -4 32 -52 36 -68 6z"/>
<path d="M810 520 c0 -33 4 -60 10 -60 6 0 10 9 10 20 0 13 5 18 15 14 35 -14
61 46 33 74 -7 7 -25 12 -40 12 -28 0 -28 -1 -28 -60z m58 26 c6 -27 -6 -46
-23 -40 -15 6 -21 45 -8 58 11 10 28 1 31 -18z"/>
<path d="M1125 499 c-4 -11 -4 -23 0 -27 7 -7 25 17 25 36 0 20 -18 14 -25 -9z"/>
<path d="M249 376 c17 -20 16 -116 -1 -128 -9 -7 -7 -8 7 -6 13 2 21 12 23 28
2 14 11 29 19 33 13 8 13 10 -1 20 -8 7 -16 23 -18 37 -2 15 -11 26 -23 29
-17 3 -18 1 -6 -13z"/>
<path d="M53 158 c24 -18 26 -106 3 -124 -21 -15 -8 -26 15 -13 11 5 19 20 19
32 0 13 5 28 12 35 9 9 9 12 1 12 -7 0 -13 15 -15 33 -2 26 -8 33 -28 35 -23
3 -24 3 -7 -10z"/>
</g>
</svg>
