<svg id="svg" version="1.1" xmlns="http://www.w3.org/2000/svg" xmlns:xlink="http://www.w3.org/1999/xlink" width="400" height="353.84615384615387" viewBox="0, 0, 400,353.84615384615387"><g id="svgg"><path id="path0" d="M32.920 17.943 C 22.458 19.708,19.055 21.604,14.935 27.965 C 11.669 33.005,11.894 30.729,11.763 60.099 L 11.647 86.038 12.699 87.090 L 13.751 88.142 201.720 88.142 C 319.876 88.142,390.018 88.016,390.575 87.805 C 392.298 87.149,392.276 87.522,392.229 60.450 C 392.178 31.306,392.325 32.866,389.171 28.071 C 385.428 22.381,382.698 20.463,376.106 18.890 L 371.858 17.876 202.832 17.835 C 109.867 17.812,33.407 17.861,32.920 17.943 M273.146 43.373 C 276.757 45.489,278.749 48.904,278.716 52.920 C 278.628 63.667,265.450 67.569,259.317 58.664 C 253.344 49.990,264.115 38.080,273.146 43.373 M311.830 43.363 C 321.863 48.535,318.440 63.619,307.257 63.519 C 301.584 63.468,296.356 58.569,296.299 53.250 C 296.215 45.470,305.031 39.857,311.830 43.363 M350.523 43.259 C 358.718 46.762,358.994 58.284,350.980 62.301 C 342.595 66.504,331.823 57.558,335.839 49.727 C 339.327 42.925,344.457 40.665,350.523 43.259 " stroke="none" fill="#123262" fill-rule="evenodd"></path><path id="path1" d="M0.000 176.991 L 0.000 353.982 200.000 353.982 L 400.000 353.982 400.000 176.991 L 400.000 0.000 200.000 0.000 L 0.000 0.000 0.000 176.991 M377.128 17.449 C 383.962 19.631,386.618 21.538,390.077 26.743 C 393.763 32.292,393.641 31.128,393.664 60.944 C 393.685 89.215,393.820 87.654,391.270 88.719 C 389.197 89.585,13.575 89.430,12.390 88.562 C 10.163 86.933,10.242 88.020,10.355 60.354 C 10.456 35.563,10.468 35.183,11.249 32.409 C 13.711 23.670,21.489 17.684,32.212 16.274 C 33.283 16.134,110.381 16.038,203.540 16.062 L 372.920 16.106 377.128 17.449 M266.276 43.887 C 262.222 44.848,258.875 49.542,259.185 53.831 C 259.863 63.195,274.066 65.004,276.667 56.057 C 278.784 48.773,273.209 42.243,266.276 43.887 M304.699 44.085 C 302.651 44.738,299.911 47.359,298.731 49.794 C 295.227 57.027,304.241 64.809,311.681 60.975 C 320.809 56.273,314.482 40.969,304.699 44.085 M343.628 44.026 C 333.618 47.739,335.653 61.947,346.195 61.947 C 356.084 61.947,358.624 49.168,349.629 44.675 C 347.580 43.652,345.301 43.406,343.628 44.026 M391.495 100.821 C 391.987 101.186,392.587 101.867,392.828 102.335 C 393.628 103.885,393.283 323.540,392.477 325.841 C 389.553 334.189,382.129 339.607,371.355 341.253 C 369.812 341.489,312.107 341.576,200.354 341.510 L 31.681 341.411 27.720 340.281 C 23.274 339.013,21.663 338.280,19.570 336.574 C 18.777 335.927,17.593 334.978,16.940 334.464 C 15.095 333.012,12.417 328.245,11.547 324.864 L 10.796 321.947 10.796 212.743 C 10.796 95.365,10.697 101.804,12.526 100.802 C 13.966 100.014,17.455 100.001,203.353 100.078 C 385.810 100.155,390.624 100.174,391.495 100.821 M232.556 131.163 C 229.203 132.197,225.707 136.669,223.510 142.737 C 222.886 144.460,221.975 146.476,221.484 147.217 C 220.994 147.957,220.258 149.648,219.849 150.974 C 219.439 152.299,218.483 154.514,217.723 155.895 C 216.963 157.277,216.078 159.442,215.757 160.708 C 215.436 161.973,214.563 164.046,213.816 165.314 C 213.069 166.581,212.190 168.572,211.863 169.738 C 211.535 170.904,210.740 172.735,210.096 173.805 C 209.452 174.876,208.584 176.861,208.167 178.217 C 207.751 179.573,206.874 181.644,206.220 182.819 C 205.566 183.994,204.677 186.150,204.245 187.611 C 203.812 189.071,202.853 191.381,202.111 192.743 C 201.370 194.106,200.580 195.938,200.355 196.814 C 200.131 197.690,199.323 199.449,198.561 200.723 C 197.800 201.996,196.799 204.146,196.338 205.501 C 195.877 206.856,195.099 208.761,194.608 209.735 C 194.118 210.708,193.316 212.619,192.826 213.982 C 192.336 215.345,191.281 217.702,190.481 219.220 C 189.681 220.738,189.027 222.206,189.027 222.482 C 189.027 223.417,187.915 226.265,186.906 227.915 C 186.354 228.818,185.632 230.513,185.302 231.681 C 184.971 232.850,184.093 234.920,183.348 236.283 C 182.604 237.646,181.565 239.956,181.038 241.416 C 180.512 242.876,179.637 244.867,179.094 245.841 C 178.551 246.814,177.840 248.566,177.514 249.735 C 177.188 250.903,176.313 252.980,175.571 254.351 C 174.829 255.722,173.952 257.793,173.621 258.953 C 173.290 260.113,172.396 262.204,171.633 263.601 C 170.870 264.997,169.928 267.065,169.539 268.197 C 169.149 269.328,168.209 271.292,167.448 272.561 C 166.688 273.829,165.804 275.903,165.484 277.168 C 165.163 278.434,164.434 280.202,163.863 281.098 C 163.292 281.994,162.433 283.881,161.953 285.291 C 161.474 286.701,160.598 288.640,160.008 289.599 C 156.190 295.804,156.245 303.991,160.129 307.715 C 167.438 314.723,176.987 310.734,180.713 299.115 C 181.057 298.044,181.853 296.133,182.483 294.867 C 183.113 293.602,184.040 291.419,184.543 290.017 C 185.047 288.616,185.923 286.545,186.489 285.416 C 187.056 284.287,187.790 282.407,188.122 281.239 C 188.453 280.071,189.336 278.080,190.085 276.814 C 190.834 275.549,191.774 273.397,192.173 272.033 C 192.572 270.669,193.376 268.801,193.959 267.882 C 194.542 266.962,195.487 264.893,196.060 263.282 C 196.633 261.672,197.505 259.637,197.998 258.761 C 198.491 257.885,199.315 255.999,199.829 254.570 C 200.343 253.141,201.220 251.199,201.777 250.254 C 202.334 249.309,203.129 247.372,203.544 245.949 C 203.959 244.527,204.829 242.487,205.477 241.416 C 206.126 240.345,206.931 238.513,207.266 237.345 C 207.601 236.177,208.482 234.027,209.225 232.566 C 209.967 231.106,210.990 228.796,211.499 227.434 C 212.007 226.071,212.887 224.134,213.453 223.129 C 214.020 222.125,214.833 220.213,215.260 218.881 C 215.687 217.550,216.570 215.620,217.223 214.593 C 217.875 213.566,218.715 211.623,219.089 210.275 C 219.462 208.927,220.319 206.821,220.994 205.594 C 221.668 204.367,222.578 202.248,223.015 200.885 C 223.452 199.522,224.328 197.451,224.963 196.283 C 225.597 195.115,226.302 193.522,226.529 192.743 C 226.757 191.965,227.727 189.735,228.685 187.788 C 229.643 185.841,230.848 183.212,231.362 181.947 C 234.733 173.643,235.797 171.161,236.420 170.154 C 236.807 169.528,237.537 167.589,238.042 165.844 C 238.548 164.099,239.235 162.290,239.569 161.823 C 241.116 159.662,241.470 158.964,242.120 156.804 C 242.502 155.533,243.434 153.297,244.190 151.835 C 250.893 138.884,244.478 127.488,232.556 131.163 M147.359 155.100 C 144.169 155.815,140.208 159.379,134.635 166.549 C 133.575 167.912,131.905 169.982,130.923 171.150 C 129.941 172.319,128.204 174.469,127.063 175.929 C 123.829 180.068,113.380 192.964,109.735 197.315 C 109.053 198.128,106.584 201.236,104.248 204.221 C 101.912 207.206,99.222 210.529,98.271 211.606 C 94.313 216.088,93.485 220.106,95.535 224.886 C 96.706 227.618,97.476 228.716,103.377 236.060 C 105.039 238.130,107.283 241.018,108.361 242.478 C 109.440 243.938,111.346 246.257,112.595 247.631 C 113.845 249.005,115.773 251.315,116.881 252.764 C 117.988 254.213,119.456 256.115,120.144 256.991 C 120.831 257.867,121.908 259.301,122.538 260.177 C 123.167 261.053,125.332 263.681,127.348 266.018 C 133.690 273.368,134.021 273.771,135.011 275.343 C 142.894 287.856,153.217 289.576,159.953 279.499 C 162.202 276.135,161.017 271.634,156.527 266.486 C 155.478 265.283,154.212 263.650,153.713 262.857 C 153.215 262.064,151.744 260.221,150.444 258.761 C 148.301 256.353,145.688 253.062,142.301 248.503 C 141.619 247.586,140.385 246.054,139.558 245.099 C 136.276 241.310,131.997 235.992,127.004 229.498 C 126.475 228.811,125.434 227.587,124.691 226.779 C 120.153 221.849,120.157 220.158,124.719 214.773 C 125.748 213.559,127.677 211.133,129.007 209.381 C 130.336 207.628,132.079 205.464,132.880 204.571 C 134.856 202.367,140.818 194.997,142.106 193.166 C 142.680 192.349,144.592 189.993,146.354 187.929 C 148.116 185.865,150.072 183.476,150.701 182.619 C 151.330 181.763,152.884 179.788,154.155 178.230 C 161.669 169.015,162.463 165.678,158.471 160.082 C 155.583 156.035,151.453 154.183,147.359 155.100 M250.750 155.841 C 248.643 156.997,247.328 158.218,245.285 160.917 L 243.474 163.310 243.595 166.356 C 243.732 169.780,245.128 172.671,248.496 176.503 C 249.372 177.499,251.044 179.552,252.212 181.065 C 253.381 182.578,256.009 185.845,258.053 188.325 C 260.097 190.805,262.646 193.920,263.717 195.246 C 264.788 196.572,266.540 198.638,267.611 199.836 C 268.681 201.033,270.590 203.432,271.851 205.166 C 274.184 208.372,277.754 212.871,279.937 215.356 C 283.962 219.938,283.629 221.684,277.324 229.097 C 275.949 230.713,274.166 232.912,273.361 233.982 C 272.556 235.053,271.009 237.044,269.924 238.407 C 268.839 239.770,267.277 241.763,266.453 242.836 C 265.630 243.908,263.602 246.428,261.947 248.435 C 258.521 252.589,258.067 253.161,253.451 259.140 C 251.602 261.535,249.515 264.143,248.815 264.934 C 243.780 270.618,242.403 274.806,244.238 278.848 C 248.357 287.924,258.789 288.720,264.841 280.421 C 265.649 279.313,266.961 277.667,267.757 276.763 C 269.303 275.006,272.733 270.953,274.937 268.277 C 275.677 267.379,277.189 265.547,278.295 264.207 C 279.402 262.866,280.871 261.053,281.560 260.177 C 283.485 257.729,286.898 253.477,288.577 251.436 C 292.052 247.210,295.924 242.312,298.502 238.881 C 300.014 236.868,302.677 233.500,304.419 231.396 C 311.276 223.114,311.527 218.733,305.556 211.564 C 304.718 210.558,303.431 209.018,302.696 208.142 C 301.960 207.265,300.740 205.673,299.983 204.602 C 298.617 202.667,295.349 198.547,291.421 193.805 C 290.292 192.442,288.814 190.577,288.136 189.660 C 287.458 188.743,284.912 185.589,282.478 182.653 C 280.044 179.716,277.496 176.558,276.814 175.636 C 276.133 174.713,274.381 172.549,272.920 170.826 C 271.460 169.104,269.628 166.860,268.850 165.840 C 264.031 159.531,260.443 156.185,257.632 155.379 C 255.477 154.761,252.333 154.972,250.750 155.841 " stroke="none" fill="#f3f9fa" fill-rule="evenodd"></path><path id="path2" d="M32.212 16.274 C 21.489 17.684,13.711 23.670,11.249 32.409 C 10.468 35.183,10.456 35.563,10.355 60.354 C 10.242 88.020,10.163 86.933,12.390 88.562 C 13.575 89.430,389.197 89.585,391.270 88.719 C 393.820 87.654,393.685 89.215,393.664 60.944 C 393.641 31.128,393.763 32.292,390.077 26.743 C 386.618 21.538,383.962 19.631,377.128 17.449 L 372.920 16.106 203.540 16.062 C 110.381 16.038,33.283 16.134,32.212 16.274 M376.106 18.890 C 382.698 20.463,385.428 22.381,389.171 28.071 C 392.325 32.866,392.178 31.306,392.229 60.450 C 392.276 87.522,392.298 87.149,390.575 87.805 C 390.018 88.016,319.876 88.142,201.720 88.142 L 13.751 88.142 12.699 87.090 L 11.647 86.038 11.763 60.099 C 11.894 30.729,11.669 33.005,14.935 27.965 C 19.055 21.604,22.458 19.708,32.920 17.943 C 33.407 17.861,109.867 17.812,202.832 17.835 L 371.858 17.876 376.106 18.890 M265.841 42.434 C 258.931 43.948,255.339 52.886,259.317 58.664 C 265.450 67.569,278.628 63.667,278.716 52.920 C 278.773 46.034,272.548 40.964,265.841 42.434 M304.779 42.438 C 299.227 43.637,294.942 50.854,296.761 55.940 C 300.095 65.261,312.292 66.227,316.734 57.522 C 320.682 49.788,313.382 40.579,304.779 42.438 M343.381 42.496 C 337.737 43.655,333.335 52.134,336.016 56.682 C 339.900 63.272,345.127 65.235,350.980 62.301 C 362.273 56.640,355.862 39.932,343.381 42.496 M270.441 43.893 C 275.639 45.384,278.273 50.531,276.667 56.057 C 274.066 65.004,259.863 63.195,259.185 53.831 C 258.742 47.707,264.871 42.296,270.441 43.893 M310.886 44.633 C 317.465 47.927,317.943 57.750,311.681 60.975 C 304.241 64.809,295.227 57.027,298.731 49.794 C 301.265 44.565,306.397 42.386,310.886 44.633 M349.629 44.675 C 358.624 49.168,356.084 61.947,346.195 61.947 C 337.062 61.947,333.698 51.079,341.086 45.444 C 343.770 43.397,346.565 43.145,349.629 44.675 M14.690 100.196 C 13.912 100.304,12.938 100.577,12.526 100.802 C 10.697 101.804,10.796 95.365,10.796 212.743 L 10.796 321.947 11.547 324.864 C 12.417 328.245,15.095 333.012,16.940 334.464 C 17.593 334.978,18.777 335.927,19.570 336.574 C 21.663 338.280,23.274 339.013,27.720 340.281 L 31.681 341.411 200.354 341.510 C 312.107 341.576,369.812 341.489,371.355 341.253 C 382.129 339.607,389.553 334.189,392.477 325.841 C 393.283 323.540,393.628 103.885,392.828 102.335 C 392.587 101.867,391.987 101.186,391.495 100.821 C 390.617 100.169,19.325 99.554,14.690 100.196 M240.137 131.121 C 247.409 133.309,249.157 142.238,244.190 151.835 C 243.434 153.297,242.502 155.533,242.120 156.804 C 241.470 158.964,241.116 159.662,239.569 161.823 C 239.235 162.290,238.548 164.099,238.042 165.844 C 237.537 167.589,236.807 169.528,236.420 170.154 C 235.797 171.161,234.733 173.643,231.362 181.947 C 230.848 183.212,229.643 185.841,228.685 187.788 C 227.727 189.735,226.757 191.965,226.529 192.743 C 226.302 193.522,225.597 195.115,224.963 196.283 C 224.328 197.451,223.452 199.522,223.015 200.885 C 222.578 202.248,221.668 204.367,220.994 205.594 C 220.319 206.821,219.462 208.927,219.089 210.275 C 218.715 211.623,217.875 213.566,217.223 214.593 C 216.570 215.620,215.687 217.550,215.260 218.881 C 214.833 220.213,214.020 222.125,213.453 223.129 C 212.887 224.134,212.007 226.071,211.499 227.434 C 210.990 228.796,209.967 231.106,209.225 232.566 C 208.482 234.027,207.601 236.177,207.266 237.345 C 206.931 238.513,206.126 240.345,205.477 241.416 C 204.829 242.487,203.959 244.527,203.544 245.949 C 203.129 247.372,202.334 249.309,201.777 250.254 C 201.220 251.199,200.343 253.141,199.829 254.570 C 199.315 255.999,198.491 257.885,197.998 258.761 C 197.505 259.637,196.633 261.672,196.060 263.282 C 195.487 264.893,194.542 266.962,193.959 267.882 C 193.376 268.801,192.572 270.669,192.173 272.033 C 191.774 273.397,190.834 275.549,190.085 276.814 C 189.336 278.080,188.453 280.071,188.122 281.239 C 187.790 282.407,187.056 284.287,186.489 285.416 C 185.923 286.545,185.047 288.616,184.543 290.017 C 184.040 291.419,183.113 293.602,182.483 294.867 C 181.853 296.133,181.057 298.044,180.713 299.115 C 176.987 310.734,167.438 314.723,160.129 307.715 C 156.245 303.991,156.190 295.804,160.008 289.599 C 160.598 288.640,161.474 286.701,161.953 285.291 C 162.433 283.881,163.292 281.994,163.863 281.098 C 164.434 280.202,165.163 278.434,165.484 277.168 C 165.804 275.903,166.688 273.829,167.448 272.561 C 168.209 271.292,169.149 269.328,169.539 268.197 C 169.928 267.065,170.870 264.997,171.633 263.601 C 172.396 262.204,173.290 260.113,173.621 258.953 C 173.952 257.793,174.829 255.722,175.571 254.351 C 176.313 252.980,177.188 250.903,177.514 249.735 C 177.840 248.566,178.551 246.814,179.094 245.841 C 179.637 244.867,180.512 242.876,181.038 241.416 C 181.565 239.956,182.604 237.646,183.348 236.283 C 184.093 234.920,184.971 232.850,185.302 231.681 C 185.632 230.513,186.354 228.818,186.906 227.915 C 187.915 226.265,189.027 223.417,189.027 222.482 C 189.027 222.206,189.681 220.738,190.481 219.220 C 191.281 217.702,192.336 215.345,192.826 213.982 C 193.316 212.619,194.118 210.708,194.608 209.735 C 195.099 208.761,195.877 206.856,196.338 205.501 C 196.799 204.146,197.800 201.996,198.561 200.723 C 199.323 199.449,200.131 197.690,200.355 196.814 C 200.580 195.938,201.370 194.106,202.111 192.743 C 202.853 191.381,203.812 189.071,204.245 187.611 C 204.677 186.150,205.566 183.994,206.220 182.819 C 206.874 181.644,207.751 179.573,208.167 178.217 C 208.584 176.861,209.452 174.876,210.096 173.805 C 210.740 172.735,211.535 170.904,211.863 169.738 C 212.190 168.572,213.069 166.581,213.816 165.314 C 214.563 164.046,215.436 161.973,215.757 160.708 C 216.078 159.442,216.963 157.277,217.723 155.895 C 218.483 154.514,219.439 152.299,219.849 150.974 C 220.258 149.648,220.994 147.957,221.484 147.217 C 221.975 146.476,222.886 144.460,223.510 142.737 C 227.062 132.928,232.806 128.914,240.137 131.121 M152.227 155.170 C 154.027 155.813,157.215 158.322,158.471 160.082 C 162.463 165.678,161.669 169.015,154.155 178.230 C 152.884 179.788,151.330 181.763,150.701 182.619 C 150.072 183.476,148.116 185.865,146.354 187.929 C 144.592 189.993,142.680 192.349,142.106 193.166 C 140.818 194.997,134.856 202.367,132.880 204.571 C 132.079 205.464,130.336 207.628,129.007 209.381 C 127.677 211.133,125.748 213.559,124.719 214.773 C 120.157 220.158,120.153 221.849,124.691 226.779 C 125.434 227.587,126.475 228.811,127.004 229.498 C 131.997 235.992,136.276 241.310,139.558 245.099 C 140.385 246.054,141.619 247.586,142.301 248.503 C 145.688 253.062,148.301 256.353,150.444 258.761 C 151.744 260.221,153.215 262.064,153.713 262.857 C 154.212 263.650,155.478 265.283,156.527 266.486 C 161.017 271.634,162.202 276.135,159.953 279.499 C 153.217 289.576,142.894 287.856,135.011 275.343 C 134.021 273.771,133.690 273.368,127.348 266.018 C 125.332 263.681,123.167 261.053,122.538 260.177 C 121.908 259.301,120.831 257.867,120.144 256.991 C 119.456 256.115,117.988 254.213,116.881 252.764 C 115.773 251.315,113.845 249.005,112.595 247.631 C 111.346 246.257,109.440 243.938,108.361 242.478 C 107.283 241.018,105.039 238.130,103.377 236.060 C 97.476 228.716,96.706 227.618,95.535 224.886 C 93.485 220.106,94.313 216.088,98.271 211.606 C 99.222 210.529,101.912 207.206,104.248 204.221 C 106.584 201.236,109.053 198.128,109.735 197.315 C 113.380 192.964,123.829 180.068,127.063 175.929 C 128.204 174.469,129.941 172.319,130.923 171.150 C 131.905 169.982,133.575 167.912,134.635 166.549 C 142.439 156.510,147.258 153.393,152.227 155.170 M257.632 155.379 C 260.443 156.185,264.031 159.531,268.850 165.840 C 269.628 166.860,271.460 169.104,272.920 170.826 C 274.381 172.549,276.133 174.713,276.814 175.636 C 277.496 176.558,280.044 179.716,282.478 182.653 C 284.912 185.589,287.458 188.743,288.136 189.660 C 288.814 190.577,290.292 192.442,291.421 193.805 C 295.349 198.547,298.617 202.667,299.983 204.602 C 300.740 205.673,301.960 207.265,302.696 208.142 C 303.431 209.018,304.718 210.558,305.556 211.564 C 311.527 218.733,311.276 223.114,304.419 231.396 C 302.677 233.500,300.014 236.868,298.502 238.881 C 295.924 242.312,292.052 247.210,288.577 251.436 C 286.898 253.477,283.485 257.729,281.560 260.177 C 280.871 261.053,279.402 262.866,278.295 264.207 C 277.189 265.547,275.677 267.379,274.937 268.277 C 272.733 270.953,269.303 275.006,267.757 276.763 C 266.961 277.667,265.649 279.313,264.841 280.421 C 258.789 288.720,248.357 287.924,244.238 278.848 C 242.403 274.806,243.780 270.618,248.815 264.934 C 249.515 264.143,251.602 261.535,253.451 259.140 C 258.067 253.161,258.521 252.589,261.947 248.435 C 263.602 246.428,265.630 243.908,266.453 242.836 C 267.277 241.763,268.839 239.770,269.924 238.407 C 271.009 237.044,272.556 235.053,273.361 233.982 C 274.166 232.912,275.949 230.713,277.324 229.097 C 283.629 221.684,283.962 219.938,279.937 215.356 C 277.754 212.871,274.184 208.372,271.851 205.166 C 270.590 203.432,268.681 201.033,267.611 199.836 C 266.540 198.638,264.788 196.572,263.717 195.246 C 262.646 193.920,260.097 190.805,258.053 188.325 C 256.009 185.845,253.381 182.578,252.212 181.065 C 251.044 179.552,249.372 177.499,248.496 176.503 C 245.128 172.671,243.732 169.780,243.595 166.356 L 243.474 163.310 245.285 160.917 C 249.232 155.702,252.948 154.036,257.632 155.379 " stroke="none" fill="#22ace4" fill-rule="evenodd"></path></g></svg>