<svg id="svg" version="1.1" xmlns="http://www.w3.org/2000/svg" xmlns:xlink="http://www.w3.org/1999/xlink" width="400" height="400" viewBox="0, 0, 400,400"><g id="svgg"><path id="path0" d="M179.322 69.765 L 178.200 70.730 178.000 102.323 C 177.759 140.403,178.883 136.495,168.600 135.005 C 157.000 133.324,139.281 135.267,128.097 139.445 C 98.705 150.426,82.557 175.204,82.637 209.200 C 82.750 256.813,112.363 281.161,168.600 279.878 C 182.564 279.560,203.885 277.590,210.400 276.016 C 211.170 275.830,213.567 275.372,215.726 274.997 C 218.573 274.504,219.947 274.063,220.726 273.393 L 221.800 272.469 221.905 172.135 C 221.979 101.042,221.883 71.495,221.578 70.752 C 220.787 68.833,220.420 68.800,199.803 68.800 L 180.445 68.800 179.322 69.765 M250.967 69.630 C 248.089 70.466,248.214 69.571,248.075 90.342 C 247.939 110.716,248.006 111.898,249.391 113.507 L 250.331 114.600 270.400 114.600 L 290.469 114.600 291.435 113.478 L 292.400 112.355 292.400 92.067 C 292.400 69.492,292.510 70.401,289.688 69.618 C 287.840 69.104,252.739 69.116,250.967 69.630 M249.625 138.300 C 248.063 139.565,248.019 141.026,248.009 192.200 C 247.997 246.175,247.735 257.045,246.190 267.668 C 242.618 292.225,234.913 303.631,213.800 315.615 C 204.823 320.711,204.043 319.795,226.400 330.421 C 246.501 339.976,245.706 339.758,250.844 337.114 C 272.708 325.863,285.197 308.721,289.806 283.635 C 292.231 270.436,292.482 263.315,292.691 201.635 C 292.895 141.545,292.863 140.027,291.379 138.542 L 290.436 137.600 270.462 137.600 C 252.036 137.600,250.422 137.654,249.625 138.300 M170.689 170.160 C 178.572 171.343,177.950 168.192,177.977 207.113 C 178.003 242.977,178.117 241.446,175.314 242.714 C 172.573 243.956,156.155 243.684,151.126 242.314 C 135.460 238.047,127.853 226.631,127.860 207.400 C 127.869 180.593,144.407 166.213,170.689 170.160 " stroke="none" fill="#fbfbfb" fill-rule="evenodd"></path><path id="path1" d="M0.000 200.000 L 0.000 400.000 200.000 400.000 L 400.000 400.000 400.000 200.000 L 400.000 0.000 200.000 0.000 L 0.000 0.000 0.000 200.000 M220.154 69.252 C 222.079 70.129,222.015 66.370,221.905 172.135 L 221.800 272.469 220.726 273.393 C 219.947 274.063,218.573 274.504,215.726 274.997 C 213.567 275.372,211.170 275.830,210.400 276.016 C 203.885 277.590,182.564 279.560,168.600 279.878 C 112.363 281.161,82.750 256.813,82.637 209.200 C 82.557 175.204,98.705 150.426,128.097 139.445 C 139.281 135.267,157.000 133.324,168.600 135.005 C 178.883 136.495,177.759 140.403,178.000 102.323 L 178.200 70.730 179.322 69.765 L 180.445 68.800 199.803 68.800 C 213.339 68.800,219.461 68.936,220.154 69.252 M289.688 69.618 C 292.510 70.401,292.400 69.492,292.400 92.067 L 292.400 112.355 291.435 113.478 L 290.469 114.600 270.400 114.600 L 250.331 114.600 249.391 113.507 C 248.006 111.898,247.939 110.716,248.075 90.342 C 248.214 69.571,248.089 70.466,250.967 69.630 C 252.739 69.116,287.840 69.104,289.688 69.618 M291.379 138.542 C 292.863 140.027,292.895 141.545,292.691 201.635 C 292.482 263.315,292.231 270.436,289.806 283.635 C 285.197 308.721,272.708 325.863,250.844 337.114 C 245.706 339.758,246.501 339.976,226.400 330.421 C 204.043 319.795,204.823 320.711,213.800 315.615 C 234.913 303.631,242.618 292.225,246.190 267.668 C 247.735 257.045,247.997 246.175,248.009 192.200 C 248.015 162.959,248.173 141.536,248.390 140.600 C 249.120 137.449,248.007 137.600,270.462 137.600 L 290.436 137.600 291.379 138.542 M155.200 170.209 C 137.709 172.946,127.867 186.334,127.860 207.400 C 127.851 231.986,139.385 243.344,164.400 243.385 C 175.176 243.402,176.360 243.151,177.414 240.627 C 178.197 238.754,178.256 175.872,177.477 173.620 C 176.292 170.193,165.684 168.569,155.200 170.209 " stroke="none" fill="#0b2b23" fill-rule="evenodd"></path></g></svg>