<svg id="svg" xmlns="http://www.w3.org/2000/svg" xmlns:xlink="http://www.w3.org/1999/xlink" width="400" height="443.88185654008436" viewBox="0, 0, 400,443.88185654008436" version="1.1"><g id="svgg"><path id="path0" d="M0.000 221.800 L 0.000 443.600 46.400 443.600 L 92.800 443.600 92.800 221.800 L 92.800 0.000 46.400 0.000 L 0.000 0.000 0.000 221.800 M152.899 150.700 L 153.000 301.400 199.200 301.400 L 245.400 301.400 245.501 150.700 L 245.601 0.000 199.200 0.000 L 152.799 -0.000 152.899 150.700 M304.800 221.800 L 304.800 443.600 351.200 443.600 L 397.600 443.600 397.600 221.800 L 397.600 0.000 351.200 0.000 L 304.800 0.000 304.800 221.800 " stroke="none" fill="#a41c34" fill-rule="evenodd"></path><path id="path1" d="M92.800 221.800 L 92.800 443.600 93.800 443.600 L 94.800 443.600 94.800 221.800 L 94.800 0.000 93.800 0.000 L 92.800 0.000 92.800 221.800 M151.600 151.602 L 151.600 303.203 199.100 303.102 L 246.600 303.000 246.701 151.500 C 246.790 17.056,246.733 0.000,246.201 0.000 C 245.669 0.000,245.590 17.056,245.501 150.700 L 245.400 301.400 199.200 301.400 L 153.000 301.400 152.899 150.700 C 152.810 17.115,152.731 0.000,152.199 0.000 C 151.668 0.000,151.600 17.170,151.600 151.602 M303.600 221.800 C 303.600 418.689,303.667 443.600,304.200 443.600 C 304.733 443.600,304.800 418.689,304.800 221.800 C 304.800 24.911,304.733 0.000,304.200 0.000 C 303.667 0.000,303.600 24.911,303.600 221.800 M397.600 221.800 C 397.600 418.689,397.667 443.600,398.200 443.600 C 398.733 443.600,398.800 418.759,398.800 222.433 C 398.800 100.791,398.909 0.981,399.043 0.633 C 399.217 0.179,399.047 0.000,398.443 0.000 L 397.600 0.000 397.600 221.800 " stroke="none" fill="#bc5c6c" fill-rule="evenodd"></path></g></svg>